<?xml version="1.0" standalone="no"?><!DOCTYPE svg PUBLIC "-//W3C//DTD SVG 1.1//EN" "http://www.w3.org/Graphics/SVG/1.1/DTD/svg11.dtd"><svg t="1688713301226" class="icon" viewBox="0 0 1024 1024" version="1.1" xmlns="http://www.w3.org/2000/svg" p-id="19176" xmlns:xlink="http://www.w3.org/1999/xlink" width="500" height="500"><path d="M768 896h-512a128 128 0 0 1-128-128v-512a128 128 0 0 1 128-128h384v256h256v384a128 128 0 0 1-128 128z m-512-704a64 64 0 0 0-64 64v512a64 64 0 0 0 64 64h512a64 64 0 0 0 64-64v-352h-224v-224z" fill="#4078FD" p-id="19177"></path><path d="M608 416v-288h64l224 224v64z" fill="#4078FD" opacity=".2" p-id="19178"></path><path d="M864 384v-18.784l-205.216-205.216H640v224h224m32 32h-288v-288h64l224 224z" fill="#4078FD" p-id="19179"></path><path d="M288 480m32 0l256 0q32 0 32 32l0 0q0 32-32 32l-256 0q-32 0-32-32l0 0q0-32 32-32Z" fill="#FE9C23" p-id="19180"></path><path d="M288 640m32 0l256 0q32 0 32 32l0 0q0 32-32 32l-256 0q-32 0-32-32l0 0q0-32 32-32Z" fill="#4078FD" p-id="19181"></path></svg>