<?xml version="1.0" standalone="no"?><!DOCTYPE svg PUBLIC "-//W3C//DTD SVG 1.1//EN" "http://www.w3.org/Graphics/SVG/1.1/DTD/svg11.dtd"><svg height="800" node-id="1" sillyvg="true" template-height="800" template-width="800" version="1.1" viewBox="0 0 800 800" width="800" xmlns="http://www.w3.org/2000/svg" xmlns:xlink="http://www.w3.org/1999/xlink"><defs node-id="177"><linearGradient gradientUnits="userSpaceOnUse" id="SVGID_1_" node-id="21" spreadMethod="pad" x1="398.5984" x2="398.5984" y1="159.8431" y2="715.3348"><stop offset="0.00000009590021" stop-color="#f4f2fb"></stop><stop offset="1" stop-color="#e1eef5"></stop></linearGradient><linearGradient gradientUnits="userSpaceOnUse" id="SVGID_2_" node-id="25" spreadMethod="pad" x1="473.4159" x2="577.0026" y1="642.4968" y2="463.0794"><stop offset="0" stop-color="#b0b9e1"></stop><stop offset="1" stop-color="#e8f0f7"></stop></linearGradient><linearGradient gradientUnits="userSpaceOnUse" id="SVGID_3_" node-id="30" spreadMethod="pad" x1="113.6802" x2="113.6802" y1="540.2294" y2="403.0549"><stop offset="0.2267" stop-color="#b7ace0"></stop><stop offset="0.7893" stop-color="#e8e7fa"></stop></linearGradient><linearGradient gradientUnits="userSpaceOnUse" id="SVGID_4_" node-id="35" spreadMethod="pad" x1="113.6821" x2="113.6821" y1="418.2866" y2="569.4199"><stop offset="0" stop-color="#ecf1fb"></stop><stop offset="0.818" stop-color="#afb0e7"></stop></linearGradient><linearGradient gradientUnits="userSpaceOnUse" id="SVGID_5_" node-id="40" spreadMethod="pad" x1="614.8091" x2="614.8091" y1="448.7075" y2="360.383"><stop offset="0.2267" stop-color="#ccd4f4"></stop><stop offset="0.7893" stop-color="#ecf1fb"></stop></linearGradient><linearGradient gradientUnits="userSpaceOnUse" id="SVGID_6_" node-id="45" spreadMethod="pad" x1="614.8103" x2="614.8103" y1="370.1905" y2="467.5028"><stop offset="0" stop-color="#ecf1fb"></stop><stop offset="1" stop-color="#a6a8e2"></stop></linearGradient><linearGradient gradientUnits="userSpaceOnUse" id="SVGID_7_" node-id="49" spreadMethod="pad" x1="460.7272" x2="425.9729" y1="86.1009" y2="146.297"><stop offset="0" stop-color="#ffdb80"></stop><stop offset="1" stop-color="#ffbb24"></stop></linearGradient><linearGradient gradientUnits="userSpaceOnUse" id="SVGID_8_" node-id="53" spreadMethod="pad" x1="418.39" x2="418.39" y1="116.5671" y2="174.021"><stop offset="0" stop-color="#f9fafe"></stop><stop offset="1" stop-color="#e5edf7"></stop></linearGradient><linearGradient gradientUnits="userSpaceOnUse" id="SVGID_9_" node-id="58" spreadMethod="pad" x1="685.4114" x2="685.4114" y1="537.9476" y2="510.1194"><stop offset="0.2267" stop-color="#afb0e7"></stop><stop offset="1" stop-color="#ecf1fb"></stop></linearGradient><linearGradient gradientUnits="userSpaceOnUse" id="SVGID_10_" node-id="62" spreadMethod="pad" x1="685.4604" x2="685.4604" y1="513.6331" y2="558.429"><stop offset="0.00000009590021" stop-color="#dde1f6"></stop><stop offset="0.818" stop-color="#a6a8e2"></stop></linearGradient><linearGradient gradientUnits="userSpaceOnUse" id="SVGID_11_" node-id="67" spreadMethod="pad" x1="293.0519" x2="497.114" y1="214.0706" y2="567.5165"><stop offset="0" stop-color="#c8cbf2"></stop><stop offset="1" stop-color="#afb0e7"></stop></linearGradient><linearGradient gradientUnits="userSpaceOnUse" id="SVGID_12_" node-id="71" spreadMethod="pad" x1="294.7871" x2="495.3787" y1="221.0836" y2="568.5184"><stop offset="0.1157" stop-color="#dee4ff"></stop><stop offset="0.8472" stop-color="#bacbee"></stop></linearGradient><linearGradient gradientUnits="userSpaceOnUse" id="SVGID_13_" node-id="76" spreadMethod="pad" x1="320.8954" x2="460.3969" y1="462.2736" y2="703.8972"><stop offset="0" stop-color="#c8cbf2"></stop><stop offset="1" stop-color="#afb0e7"></stop></linearGradient><linearGradient gradientUnits="userSpaceOnUse" id="SVGID_14_" node-id="80" spreadMethod="pad" x1="319.8965" x2="458.2239" y1="449.2846" y2="688.8747"><stop offset="0.1157" stop-color="#dee4ff"></stop><stop offset="0.8472" stop-color="#bacbee"></stop></linearGradient><linearGradient gradientUnits="userSpaceOnUse" id="SVGID_15_" node-id="87" spreadMethod="pad" x1="361.5822" x2="383.8604" y1="396.2827" y2="434.8696"><stop offset="0.1157" stop-color="#dee4ff"></stop><stop offset="0.8472" stop-color="#bacbee"></stop></linearGradient><linearGradient gradientUnits="userSpaceOnUse" id="SVGID_16_" node-id="91" spreadMethod="pad" x1="400.7331" x2="420.979" y1="400.3894" y2="435.4563"><stop offset="0.1157" stop-color="#dee4ff"></stop><stop offset="0.8472" stop-color="#bacbee"></stop></linearGradient><linearGradient gradientUnits="userSpaceOnUse" id="SVGID_17_" node-id="95" spreadMethod="pad" x1="326.185" x2="342.988" y1="407.3466" y2="436.4502"><stop offset="0.1157" stop-color="#dee4ff"></stop><stop offset="0.8472" stop-color="#bacbee"></stop></linearGradient><linearGradient gradientUnits="userSpaceOnUse" id="SVGID_18_" node-id="99" spreadMethod="pad" x1="433.1587" x2="464.8249" y1="377.3121" y2="432.1595"><stop offset="0.1157" stop-color="#dee4ff"></stop><stop offset="0.8472" stop-color="#bacbee"></stop></linearGradient><linearGradient gradientUnits="userSpaceOnUse" id="SVGID_19_" node-id="103" spreadMethod="pad" x1="376.3171" x2="413.6561" y1="326.8556" y2="391.5286"><stop offset="0.1157" stop-color="#dee4ff"></stop><stop offset="0.8472" stop-color="#bacbee"></stop></linearGradient><linearGradient gradientUnits="userSpaceOnUse" id="SVGID_20_" node-id="107" spreadMethod="pad" x1="368.1362" x2="416.362" y1="421.3323" y2="504.862"><stop offset="0.1157" stop-color="#dee4ff"></stop><stop offset="0.8472" stop-color="#bacbee"></stop></linearGradient><linearGradient gradientUnits="userSpaceOnUse" id="SVGID_21_" node-id="112" spreadMethod="pad" x1="210.6085" x2="210.6085" y1="509.9721" y2="456.6013"><stop offset="0" stop-color="#4f5c7c"></stop><stop offset="1" stop-color="#274168"></stop></linearGradient><linearGradient gradientUnits="userSpaceOnUse" id="SVGID_22_" node-id="116" spreadMethod="pad" x1="234.1194" x2="234.1194" y1="562.6718" y2="483.503"><stop offset="0" stop-color="#c3d5fd"></stop><stop offset="1" stop-color="#1a90fc"></stop></linearGradient><linearGradient gradientUnits="userSpaceOnUse" id="SVGID_23_" node-id="120" spreadMethod="pad" x1="235.2173" x2="235.2173" y1="470.0008" y2="495.0809"><stop offset="0" stop-color="#f4ae98"></stop><stop offset="1" stop-color="#fad1bb"></stop></linearGradient><linearGradient gradientTransform="matrix(0.9901 -0.1406 0.1406 0.9901 1607.5795 -631.3648)" gradientUnits="userSpaceOnUse" id="SVGID_24_" node-id="124" spreadMethod="pad" x1="-1554.582" x2="-1542.3236" y1="996.1166" y2="909.804"><stop offset="0" stop-color="#c3d5fd"></stop><stop offset="1" stop-color="#1a90fc"></stop></linearGradient><linearGradient gradientTransform="matrix(-0.9901 -0.1406 -0.1406 0.9901 -8700.1846 -631.3648)" gradientUnits="userSpaceOnUse" id="SVGID_25_" node-id="128" spreadMethod="pad" x1="-9038.717" x2="-9026.458" y1="-66.8067" y2="-153.1193"><stop offset="0" stop-color="#c3d5fd"></stop><stop offset="1" stop-color="#1a90fc"></stop></linearGradient><linearGradient gradientUnits="userSpaceOnUse" id="SVGID_26_" node-id="132" spreadMethod="pad" x1="254.639" x2="254.639" y1="509.5998" y2="459.4112"><stop offset="0" stop-color="#4f5c7c"></stop><stop offset="1" stop-color="#274168"></stop></linearGradient><linearGradient gradientTransform="matrix(0.9995 0.0319 -0.0319 0.9995 -366.3122 137.8451)" gradientUnits="userSpaceOnUse" id="SVGID_27_" node-id="136" spreadMethod="pad" x1="609.8328" x2="609.8328" y1="291.0769" y2="323.7658"><stop offset="0" stop-color="#f4b9a4"></stop><stop offset="0.652" stop-color="#fad1bb"></stop></linearGradient><linearGradient gradientUnits="userSpaceOnUse" id="SVGID_28_" node-id="140" spreadMethod="pad" x1="232.1054" x2="232.1054" y1="469.8033" y2="439.5937"><stop offset="0" stop-color="#4f5c7c"></stop><stop offset="1" stop-color="#274168"></stop></linearGradient><linearGradient gradientUnits="userSpaceOnUse" id="SVGID_29_" node-id="144" spreadMethod="pad" x1="234.1194" x2="234.1194" y1="534.0807" y2="584.3914"><stop offset="0" stop-color="#275c89"></stop><stop offset="1" stop-color="#013f7c"></stop></linearGradient><linearGradient gradientUnits="userSpaceOnUse" id="SVGID_30_" node-id="150" spreadMethod="pad" x1="7460.9116" x2="7443.101" y1="606.1041" y2="606.1041"><stop offset="0" stop-color="#f4b9a4"></stop><stop offset="0.652" stop-color="#fad1bb"></stop></linearGradient><linearGradient gradientUnits="userSpaceOnUse" id="SVGID_31_" node-id="154" spreadMethod="pad" x1="209.9704" x2="301.8519" y1="586.4739" y2="586.4739"><stop offset="0" stop-color="#18264b"></stop><stop offset="0.652" stop-color="#2d3c65"></stop></linearGradient><linearGradient gradientUnits="userSpaceOnUse" id="SVGID_32_" node-id="158" spreadMethod="pad" x1="189.2535" x2="189.2535" y1="597.4515" y2="616.3576"><stop offset="0" stop-color="#ffdb80"></stop><stop offset="1" stop-color="#ffbb24"></stop></linearGradient><linearGradient gradientUnits="userSpaceOnUse" id="SVGID_33_" node-id="164" spreadMethod="pad" x1="254.3626" x2="272.1732" y1="606.1041" y2="606.1041"><stop offset="0" stop-color="#f4b9a4"></stop><stop offset="0.652" stop-color="#fad1bb"></stop></linearGradient><linearGradient gradientUnits="userSpaceOnUse" id="SVGID_34_" node-id="168" spreadMethod="pad" x1="169.7628" x2="261.6442" y1="586.4739" y2="586.4739"><stop offset="0" stop-color="#445677"></stop><stop offset="1" stop-color="#293861"></stop></linearGradient><linearGradient gradientUnits="userSpaceOnUse" id="SVGID_35_" node-id="172" spreadMethod="pad" x1="282.3611" x2="282.3611" y1="597.4515" y2="616.3576"><stop offset="0" stop-color="#ffdb80"></stop><stop offset="1" stop-color="#ffbb24"></stop></linearGradient></defs><g node-id="504"><g node-id="505"><path d="M 481.86 201.20 C 443.49 231.49 361.12 235.01 300.69 198.98 C 240.26 162.95 128.69 167.60 98.47 233.85 C 68.25 300.10 135.66 365.18 111.25 412.83 C 86.84 460.48 5.49 527.87 61.27 609.23 C 117.05 690.59 187.87 669.85 230.49 661.68 C 314.66 645.55 420.28 777.35 539.11 677.81 C 607.58 620.46 709.55 719.90 749.28 596.45 C 782.06 494.59 663.61 456.95 699.31 388.42 C 737.27 315.54 729.98 229.18 688.85 187.36 C 650.54 148.40 548.10 148.90 481.86 201.20 Z" fill="url(#SVGID_1_)" fill-rule="nonzero" group-id="1,2" node-id="395" stroke="none" target-height="628.94995" target-width="776.57" target-x="5.49" target-y="148.4"></path><path d="M 420.17 512.56 L 657.89 509.78 L 624.48 603.00 L 405.01 603.00 Z" fill="url(#SVGID_2_)" fill-rule="nonzero" group-id="1,2" node-id="397" stroke="none" target-height="93.22" target-width="252.88" target-x="405.01" target-y="509.78"></path><g node-id="508"><path d="M 114.46 403.30 C 114.46 403.30 114.24 402.73 113.94 403.34 C 111.24 408.83 86.79 468.30 84.85 514.20 C 84.85 514.20 80.77 540.57 114.96 540.22 C 143.50 539.93 142.74 515.62 142.64 507.43 C 142.26 474.21 114.46 403.30 114.46 403.30 Z" fill="url(#SVGID_3_)" fill-rule="nonzero" group-id="1,2,5" node-id="401" stroke="none" target-height="137.84" target-width="62.730003" target-x="80.77" target-y="402.73"></path><g node-id="514"><path d="M 113.68 569.42 C 113.13 569.42 112.68 568.97 112.68 568.42 L 112.68 419.29 C 112.68 418.74 113.13 418.29 113.68 418.29 C 114.23 418.29 114.68 418.74 114.68 419.29 L 114.68 568.42 C 114.68 568.97 114.23 569.42 113.68 569.42 Z" fill="url(#SVGID_4_)" fill-rule="nonzero" group-id="1,2,5,11" node-id="405" stroke="none" target-height="151.12997" target-width="2" target-x="112.68" target-y="418.29"></path></g></g><g node-id="509"><path d="M 615.31 360.54 C 615.31 360.54 615.17 360.17 614.98 360.57 C 613.24 364.10 597.50 402.40 596.25 431.95 C 596.25 431.95 593.62 448.93 615.64 448.71 C 634.02 448.53 633.53 432.87 633.46 427.60 C 633.21 406.20 615.31 360.54 615.31 360.54 Z" fill="url(#SVGID_5_)" fill-rule="nonzero" group-id="1,2,6" node-id="411" stroke="none" target-height="88.75998" target-width="40.400024" target-x="593.62" target-y="360.17"></path><g node-id="515"><path d="M 614.81 467.50 C 614.45 467.50 614.17 467.21 614.17 466.86 L 614.17 370.84 C 614.17 370.48 614.46 370.20 614.81 370.20 C 615.17 370.20 615.45 370.49 615.45 370.84 L 615.45 466.86 C 615.45 467.21 615.17 467.50 614.81 467.50 Z" fill="url(#SVGID_6_)" fill-rule="nonzero" group-id="1,2,6,12" node-id="415" stroke="none" target-height="97.29999" target-width="1.2800293" target-x="614.17" target-y="370.2"></path></g></g><path d="M 478.10 116.20 C 478.10 135.39 462.54 150.95 443.35 150.95 C 424.16 150.95 408.60 135.39 408.60 116.20 C 408.60 97.01 424.16 81.45 443.35 81.45 C 462.54 81.45 478.10 97.01 478.10 116.20 Z" fill="url(#SVGID_7_)" fill-rule="nonzero" group-id="1,2" node-id="419" stroke="none" target-height="69.5" target-width="69.5" target-x="408.6" target-y="81.45"></path><path d="M 463.13 135.15 L 428.56 135.15 C 426.33 124.54 416.91 116.57 405.63 116.57 C 394.35 116.57 384.94 124.54 382.70 135.15 L 373.65 135.15 C 362.92 135.15 354.21 143.85 354.21 154.59 L 354.21 154.59 C 354.21 165.32 362.91 174.03 373.65 174.03 L 463.12 174.03 C 473.85 174.03 482.56 165.33 482.56 154.59 L 482.56 154.59 C 482.56 143.85 473.86 135.15 463.13 135.15 Z" fill="url(#SVGID_8_)" fill-rule="nonzero" group-id="1,2" node-id="421" stroke="none" target-height="57.46" target-width="128.35" target-x="354.21" target-y="116.57"></path><path d="M 699.32 524.03 C 699.32 531.71 693.09 537.94 685.41 537.94 C 677.73 537.94 671.50 531.71 671.50 524.03 C 671.50 516.35 677.73 510.12 685.41 510.12 C 693.09 510.12 699.32 516.35 699.32 524.03 Z" fill="url(#SVGID_9_)" fill-rule="nonzero" group-id="1,2,7" node-id="425" stroke="none" target-height="27.820007" target-width="27.820007" target-x="671.5" target-y="510.12"></path><path d="M 685.46 558.43 C 685.22 558.43 685.03 558.24 685.03 558.00 L 685.03 514.06 C 685.03 513.82 685.22 513.63 685.46 513.63 C 685.70 513.63 685.89 513.82 685.89 514.06 L 685.89 558.00 C 685.89 558.24 685.70 558.43 685.46 558.43 Z" fill="url(#SVGID_10_)" fill-rule="nonzero" group-id="1,2,7" node-id="427" stroke="none" target-height="44.799988" target-width="0.85998535" target-x="685.03" target-y="513.63"></path></g><g node-id="506"><path d="M 587.91 515.10 L 205.91 515.10 L 205.91 280.12 C 205.91 265.08 218.11 252.88 233.15 252.88 L 560.67 252.88 C 575.71 252.88 587.91 265.08 587.91 280.12 L 587.91 515.10 Z" fill="url(#SVGID_11_)" fill-rule="nonzero" group-id="1,3" node-id="433" stroke="none" target-height="262.21997" target-width="381.99997" target-x="205.91" target-y="252.88"></path><path d="M 587.91 515.10 L 205.91 515.10 L 205.91 288.13 C 205.91 273.09 218.11 260.89 233.15 260.89 L 560.67 260.89 C 575.71 260.89 587.91 273.09 587.91 288.13 L 587.91 515.10 Z" fill="url(#SVGID_12_)" fill-rule="nonzero" group-id="1,3" node-id="435" stroke="none" target-height="254.20996" target-width="381.99997" target-x="205.91" target-y="260.89"></path><path d="M 533.46 496.97 L 260.36 496.97 C 241.90 496.97 226.94 482.01 226.94 463.55 L 226.94 311.85 C 226.94 293.39 241.90 278.43 260.36 278.43 L 533.46 278.43 C 551.92 278.43 566.88 293.39 566.88 311.85 L 566.88 463.54 C 566.88 482.00 551.92 496.97 533.46 496.97 Z" fill="#ffffff" fill-rule="nonzero" group-id="1,3" node-id="437" stroke="none" target-height="218.54001" target-width="339.94" target-x="226.94" target-y="278.43"></path><path d="M 622.32 579.08 L 589.82 529.77 L 204.00 529.77 L 171.13 578.34 C 160.38 596.13 171.62 616.11 184.15 616.11 L 609.10 616.11 C 621.59 616.10 631.47 596.80 622.32 579.08 Z" fill="url(#SVGID_13_)" fill-rule="nonzero" group-id="1,3" node-id="439" stroke="none" target-height="86.339966" target-width="471.08997" target-x="160.38" target-y="529.77"></path><path d="M 620.89 575.20 L 587.90 515.09 L 205.90 515.09 L 172.41 575.09 C 166.12 586.36 173.83 600.57 186.25 600.57 L 606.99 600.57 C 619.36 600.58 627.08 586.48 620.89 575.20 Z" fill="url(#SVGID_14_)" fill-rule="nonzero" group-id="1,3" node-id="441" stroke="none" target-height="85.48999" target-width="460.96002" target-x="166.12" target-y="515.09"></path><path d="M 456.01 582.21 L 337.81 582.21 C 333.97 582.21 331.61 577.80 333.58 574.34 L 344.65 554.93 C 345.54 553.37 347.15 552.41 348.88 552.41 L 444.93 552.41 C 446.66 552.41 448.27 553.37 449.16 554.93 L 460.23 574.34 C 462.21 577.80 459.84 582.21 456.01 582.21 Z" fill="#ffffff" fill-rule="nonzero" group-id="1,3" node-id="443" stroke="none" target-height="29.800049" target-width="130.6" target-x="331.61" target-y="552.41"></path><path d="M 465.75 449.70 C 465.75 452.83 463.34 455.37 460.37 455.37 C 457.40 455.37 454.99 452.83 454.99 449.70 C 454.99 446.57 457.40 444.03 460.37 444.03 C 463.34 444.03 465.75 446.57 465.75 449.70 Z" fill="#ffffff" fill-rule="nonzero" group-id="1,3" node-id="445" stroke="none" target-height="11.339996" target-width="10.76001" target-x="454.99" target-y="444.03"></path><g node-id="511"><path d="M 372.72 391.79 C 365.82 391.79 360.22 397.39 360.22 404.29 L 360.22 426.87 C 360.22 433.77 365.82 439.37 372.72 439.37 C 379.62 439.37 385.22 433.77 385.22 426.87 L 385.22 404.29 C 385.22 397.38 379.62 391.79 372.72 391.79 Z" fill="url(#SVGID_15_)" fill-rule="nonzero" group-id="1,3,8" node-id="449" stroke="none" target-height="47.579987" target-width="25" target-x="360.22" target-y="391.79"></path><path d="M 398.36 408.98 L 398.36 426.86 C 398.36 433.76 403.96 439.36 410.86 439.36 C 417.76 439.36 423.36 433.76 423.36 426.86 L 423.36 408.98 C 423.36 402.08 417.76 396.48 410.86 396.48 C 403.96 396.48 398.36 402.08 398.36 408.98 Z" fill="url(#SVGID_16_)" fill-rule="nonzero" group-id="1,3,8" node-id="451" stroke="none" target-height="42.879974" target-width="25" target-x="398.36" target-y="396.48"></path><path d="M 322.09 416.93 L 322.09 426.86 C 322.09 433.76 327.69 439.36 334.59 439.36 C 341.49 439.36 347.09 433.76 347.09 426.86 L 347.09 416.93 C 347.09 410.03 341.49 404.43 334.59 404.43 C 327.69 404.43 322.09 410.03 322.09 416.93 Z" fill="url(#SVGID_17_)" fill-rule="nonzero" group-id="1,3,8" node-id="453" stroke="none" target-height="34.929993" target-width="25" target-x="322.09" target-y="404.43"></path><path d="M 448.99 370.11 C 442.09 370.11 436.49 375.71 436.49 382.61 L 436.49 426.87 C 436.49 433.77 442.09 439.37 448.99 439.37 C 455.89 439.37 461.49 433.77 461.49 426.87 L 461.49 382.61 C 461.49 375.70 455.90 370.11 448.99 370.11 Z" fill="url(#SVGID_18_)" fill-rule="nonzero" group-id="1,3,8" node-id="455" stroke="none" target-height="69.26001" target-width="25" target-x="436.49" target-y="370.11"></path><path d="M 321.10 400.26 C 323.83 400.26 326.58 399.37 328.88 397.54 L 358.86 373.68 L 377.34 387.59 C 381.87 391.00 388.13 390.93 392.59 387.43 L 447.12 344.55 L 447.12 350.57 C 447.12 357.47 452.72 363.07 459.62 363.07 C 466.52 363.07 472.12 357.47 472.12 350.57 L 472.12 314.57 C 472.12 307.67 466.52 302.07 459.62 302.07 L 422.63 302.07 C 415.73 302.07 410.13 307.67 410.13 314.57 C 410.13 321.47 415.73 327.07 422.63 327.07 L 428.91 327.07 L 384.70 361.84 L 366.18 347.89 C 361.63 344.46 355.34 344.55 350.88 348.10 L 313.33 377.99 C 307.93 382.29 307.04 390.15 311.34 395.55 C 313.78 398.65 317.43 400.26 321.10 400.26 Z" fill="url(#SVGID_19_)" fill-rule="nonzero" group-id="1,3,8" node-id="457" stroke="none" target-height="98.19" target-width="165.07999" target-x="307.04" target-y="302.07"></path><path d="M 463.70 450.60 L 320.80 450.60 C 313.90 450.60 308.30 456.20 308.30 463.10 C 308.30 470.00 313.90 475.60 320.80 475.60 L 463.70 475.60 C 470.60 475.60 476.20 470.00 476.20 463.10 C 476.20 456.20 470.60 450.60 463.70 450.60 Z" fill="url(#SVGID_20_)" fill-rule="nonzero" group-id="1,3,8" node-id="459" stroke="none" target-height="25" target-width="167.90002" target-x="308.3" target-y="450.6"></path></g></g><g node-id="507"><path d="M 214.50 460.32 C 214.50 460.32 202.93 463.11 200.70 473.12 C 196.03 474.26 180.31 482.72 192.18 501.41 C 198.17 508.74 199.08 509.98 199.08 509.98 L 233.37 499.86 L 233.37 456.60 L 214.50 460.32 Z" fill="url(#SVGID_21_)" fill-rule="nonzero" group-id="1,4" node-id="465" stroke="none" target-height="53.380005" target-width="53.059998" target-x="180.31" target-y="456.6"></path><path d="M 225.95 483.88 C 225.95 483.88 206.74 481.22 200.50 490.05 C 194.26 498.88 191.98 521.47 191.98 521.47 L 206.44 520.71 L 205.22 547.03 L 231.90 562.67 L 269.90 542.23 L 264.12 518.38 L 276.26 515.21 C 276.26 515.21 272.64 480.60 255.75 485.71 C 247.08 486.64 244.34 486.48 244.34 486.48 C 244.34 486.48 242.06 493.76 234.22 493.14 C 226.38 492.53 225.95 483.88 225.95 483.88 Z" fill="url(#SVGID_22_)" fill-rule="nonzero" group-id="1,4" node-id="467" stroke="none" target-height="82.06998" target-width="84.280014" target-x="191.98" target-y="480.6"></path><path d="M 227.87 473.00 L 223.88 490.80 C 223.69 491.64 224.13 492.49 224.92 492.81 C 226.98 493.65 231.11 495.08 235.36 495.08 C 239.76 495.08 243.92 492.67 245.83 491.38 C 246.49 490.94 246.76 490.11 246.51 489.36 L 240.41 471.20 C 240.13 470.37 239.29 469.88 238.43 470.03 L 229.28 471.65 C 228.58 471.77 228.02 472.30 227.87 473.00 Z" fill="url(#SVGID_23_)" fill-rule="nonzero" group-id="1,4" node-id="469" stroke="none" target-height="25.199982" target-width="23.069992" target-x="223.69" target-y="469.88"></path><path d="M 204.02 486.96 C 209.61 485.10 217.19 486.35 217.50 498.89 C 217.81 511.43 205.52 531.42 209.92 538.37 C 214.38 545.42 223.92 555.42 229.98 561.12 C 228.57 567.82 224.76 573.45 224.76 573.45 C 224.76 573.45 202.40 563.13 192.66 552.80 C 182.92 542.47 187.84 518.77 192.35 501.91 C 195.75 489.20 204.02 486.96 204.02 486.96 Z" fill="url(#SVGID_24_)" fill-rule="nonzero" group-id="1,4" node-id="471" stroke="none" target-height="88.350006" target-width="47.059998" target-x="182.92" target-y="485.1"></path><path d="M 262.62 486.96 C 257.03 485.10 249.45 486.35 249.14 498.89 C 248.83 511.43 261.12 531.42 256.72 538.37 C 252.26 545.42 242.72 555.42 236.66 561.12 C 238.07 567.82 241.88 573.45 241.88 573.45 C 241.88 573.45 264.24 563.13 273.98 552.80 C 283.72 542.47 278.80 518.77 274.29 501.91 C 270.88 489.20 262.62 486.96 262.62 486.96 Z" fill="url(#SVGID_25_)" fill-rule="nonzero" group-id="1,4" node-id="473" stroke="none" target-height="88.350006" target-width="47.059998" target-x="236.66" target-y="485.1"></path><path d="M 238.14 470.02 C 238.14 470.02 242.20 482.30 241.18 489.12 C 240.17 495.93 241.59 505.74 250.21 508.73 C 258.83 511.72 267.05 506.67 269.99 498.10 C 272.93 489.53 270.09 483.34 262.89 477.76 C 264.11 472.50 258.18 462.94 247.63 459.53 C 237.29 458.09 238.14 470.02 238.14 470.02 Z" fill="url(#SVGID_26_)" fill-rule="nonzero" group-id="1,4" node-id="475" stroke="none" target-height="53.630005" target-width="35.64" target-x="237.29" target-y="458.09"></path><path d="M 222.52 454.22 C 222.52 454.22 215.93 458.87 216.07 465.46 C 216.21 472.05 221.50 470.82 221.50 470.82 C 221.50 470.82 223.10 480.58 233.50 480.92 C 243.90 481.25 245.37 470.85 245.37 470.85 C 245.37 470.85 250.59 471.51 250.71 465.51 C 250.83 459.51 246.27 451.46 241.74 449.17 C 237.21 446.88 226.06 449.64 222.52 454.22 Z" fill="url(#SVGID_27_)" fill-rule="nonzero" group-id="1,4" node-id="477" stroke="none" target-height="34.369995" target-width="34.90001" target-x="215.93" target-y="446.88"></path><path d="M 229.22 452.16 C 229.22 452.16 227.14 458.15 221.91 459.18 C 216.68 460.21 216.22 462.88 216.22 465.38 C 216.22 467.22 216.84 468.97 217.28 469.81 C 214.46 468.26 210.61 464.56 213.06 454.36 C 215.43 444.51 222.72 439.72 232.54 439.87 C 240.76 437.70 252.93 448.71 251.87 463.03 C 250.12 460.71 248.50 460.17 247.28 459.75 C 246.06 459.34 243.53 456.81 243.22 454.28 C 241.09 454.74 233.63 455.78 229.22 452.16 Z" fill="url(#SVGID_28_)" fill-rule="nonzero" group-id="1,4" node-id="479" stroke="none" target-height="32.109985" target-width="42.319992" target-x="210.61" target-y="437.7"></path><path d="M 206.73 584.39 L 261.02 584.39 C 263.48 584.39 265.68 582.53 266.53 579.72 L 277.47 543.72 C 278.89 539.05 276.05 534.08 271.96 534.08 L 196.28 534.08 C 192.23 534.08 189.39 538.96 190.74 543.62 L 201.19 579.62 C 202.02 582.48 204.24 584.39 206.73 584.39 Z" fill="url(#SVGID_29_)" fill-rule="nonzero" group-id="1,4" node-id="481" stroke="none" target-height="50.309998" target-width="89.500015" target-x="189.39" target-y="534.08"></path><g node-id="512"><path d="M 204.57 600.95 C 204.57 600.95 203.73 599.10 203.09 598.90 C 202.45 598.70 193.16 598.33 189.77 597.45 C 186.38 596.57 176.62 595.18 172.43 599.14 C 168.79 602.59 167.58 610.65 173.13 615.29 C 175.21 617.10 177.26 617.63 184.97 617.27 C 192.68 616.91 203.86 616.99 206.31 613.42 C 206.23 607.52 204.57 600.95 204.57 600.95 Z" fill="#ffffff" fill-rule="nonzero" group-id="1,4,9" node-id="485" stroke="none" target-height="22.450012" target-width="38.729996" target-x="167.58" target-y="595.18"></path><path d="M 213.18 598.90 C 213.18 598.90 204.22 600.91 201.01 600.62 C 197.81 600.32 200.49 613.24 200.49 613.24 C 200.49 613.24 209.05 613.83 216.62 611.64 C 219.18 601.74 213.18 598.90 213.18 598.90 Z" fill="url(#SVGID_30_)" fill-rule="nonzero" group-id="1,4,9" node-id="487" stroke="none" target-height="14.929993" target-width="21.369995" target-x="197.81" target-y="598.9"></path><path d="M 209.97 598.43 L 214.63 612.92 C 214.63 612.92 314.76 599.73 300.45 567.24 C 288.49 540.07 209.97 598.43 209.97 598.43 Z" fill="url(#SVGID_31_)" fill-rule="nonzero" group-id="1,4,9" node-id="489" stroke="none" target-height="72.849976" target-width="104.79001" target-x="209.97" target-y="540.07"></path><path d="M 203.40 599.55 C 203.40 599.55 207.07 600.99 207.53 606.10 C 208.00 611.22 206.48 614.65 198.68 615.60 C 190.88 616.55 188.90 616.19 184.01 616.31 C 179.12 616.43 172.02 616.90 170.97 607.60 C 169.92 598.30 179.43 595.93 189.29 598.30 C 192.40 598.90 203.40 599.55 203.40 599.55 Z" fill="url(#SVGID_32_)" fill-rule="nonzero" group-id="1,4,9" node-id="491" stroke="none" target-height="20.970032" target-width="38.08" target-x="169.92" target-y="595.93"></path></g><g node-id="513"><path d="M 267.05 600.95 C 267.05 600.95 267.89 599.10 268.53 598.90 C 269.18 598.70 278.46 598.33 281.85 597.45 C 285.24 596.57 294.34 595.11 298.94 599.03 C 303.20 602.67 303.48 610.72 298.63 615.16 C 296.55 616.97 294.36 617.63 286.65 617.27 C 278.94 616.91 267.76 616.99 265.31 613.42 C 265.39 607.52 267.05 600.95 267.05 600.95 Z" fill="#ffffff" fill-rule="nonzero" group-id="1,4,10" node-id="496" stroke="none" target-height="22.52002" target-width="38.170013" target-x="265.31" target-y="595.11"></path><path d="M 258.43 598.90 C 258.43 598.90 267.39 600.91 270.60 600.62 C 273.81 600.33 271.12 613.24 271.12 613.24 C 271.12 613.24 262.56 613.83 254.99 611.64 C 252.44 601.74 258.43 598.90 258.43 598.90 Z" fill="url(#SVGID_33_)" fill-rule="nonzero" group-id="1,4,10" node-id="498" stroke="none" target-height="14.929993" target-width="21.369995" target-x="252.44" target-y="598.9"></path><path d="M 261.64 598.43 L 256.98 612.92 C 256.98 612.92 156.85 599.73 171.16 567.24 C 183.13 540.07 261.64 598.43 261.64 598.43 Z" fill="url(#SVGID_34_)" fill-rule="nonzero" group-id="1,4,10" node-id="500" stroke="none" target-height="72.849976" target-width="104.79001" target-x="156.85" target-y="540.07"></path><path d="M 268.21 599.55 C 268.21 599.55 264.54 600.99 264.08 606.10 C 263.61 611.22 265.13 614.65 272.93 615.60 C 280.73 616.55 282.71 616.19 287.60 616.31 C 292.49 616.43 299.59 616.90 300.64 607.60 C 301.69 598.30 292.18 595.93 282.32 598.30 C 279.22 598.90 268.21 599.55 268.21 599.55 Z" fill="url(#SVGID_35_)" fill-rule="nonzero" group-id="1,4,10" node-id="502" stroke="none" target-height="20.970032" target-width="38.080017" target-x="263.61" target-y="595.93"></path></g></g></g></svg>