<?xml version="1.0" standalone="no"?><!DOCTYPE svg PUBLIC "-//W3C//DTD SVG 1.1//EN" "http://www.w3.org/Graphics/SVG/1.1/DTD/svg11.dtd"><svg t="1685452045727" class="icon" viewBox="0 0 1024 1024" version="1.1" xmlns="http://www.w3.org/2000/svg" p-id="1086" xmlns:xlink="http://www.w3.org/1999/xlink" width="200" height="200"><path d="M0 512c0-159.061333 0-238.549333 25.984-301.269333a341.333333 341.333333 0 0 1 184.746667-184.746667C273.450667 0 352.938667 0 512 0c159.018667 0 238.549333 0 301.269333 25.984a341.333333 341.333333 0 0 1 184.746667 184.746667C1024 273.450667 1024 352.938667 1024 512c0 159.018667 0 238.549333-25.984 301.269333a341.333333 341.333333 0 0 1-184.746667 184.746667C750.549333 1024 671.018667 1024 512 1024c-159.061333 0-238.549333 0-301.269333-25.984a341.333333 341.333333 0 0 1-184.746667-184.746667C0 750.549333 0 671.018667 0 512z" fill="#27AD9A" p-id="1087"></path><path d="M298.666667 341.333333a128 128 0 0 1 128-128h170.666666a128 128 0 0 1 128 128v341.333334a128 128 0 0 1-128 128h-170.666666a128 128 0 0 1-128-128V341.333333z" fill="#FFFFFF" p-id="1088"></path><path d="M426.666667 746.666667a21.333333 21.333333 0 0 1 21.333333-21.333334h128a21.333333 21.333333 0 0 1 0 42.666667h-128a21.333333 21.333333 0 0 1-21.333333-21.333333z" fill="#F4B14B" p-id="1089"></path></svg>