<?xml version="1.0" standalone="no"?><!DOCTYPE svg PUBLIC "-//W3C//DTD SVG 1.1//EN" "http://www.w3.org/Graphics/SVG/1.1/DTD/svg11.dtd"><svg t="1685777203794" class="icon" viewBox="0 0 1024 1024" version="1.1" xmlns="http://www.w3.org/2000/svg" p-id="15017" xmlns:xlink="http://www.w3.org/1999/xlink" width="500" height="500"><path d="M910.222222 530.962963c-3.792593 102.4-49.303704 193.422222-117.57037 261.688889 3.792593 7.585185 3.792593 15.17037 3.792592 22.755555 0 30.340741-26.548148 56.888889-56.888888 56.888889s-56.888889-26.548148-56.888889-56.888889 26.548148-56.888889 56.888889-56.888888c11.377778 0 18.962963 3.792593 26.548148 7.585185 60.681481-60.681481 98.607407-144.118519 106.192592-235.140741h-113.777777c-7.585185 121.362963-106.192593 216.177778-227.555556 227.555556v265.481481c269.274074-11.377778 481.659259-223.762963 493.037037-493.037037h-113.777778z" fill="#1890F0" p-id="15018"></path><path d="M493.037037 872.296296v-113.777777c-121.362963-7.585185-216.177778-106.192593-227.555556-227.555556H0c11.377778 269.274074 223.762963 481.659259 493.037037 493.037037v-113.777778c-102.4-3.792593-197.214815-49.303704-261.688889-117.57037-7.585185 3.792593-15.17037 3.792593-22.755555 3.792592-30.340741 0-56.888889-26.548148-56.888889-56.888888S178.251852 682.666667 208.592593 682.666667s56.888889 26.548148 56.888888 56.888889c0 11.377778-3.792593 18.962963-7.585185 26.548148 60.681481 60.681481 144.118519 102.4 235.140741 106.192592z" fill="#16D09D" p-id="15019"></path><path d="M0 493.037037h113.777778c3.792593-83.437037 34.133333-159.288889 79.644444-223.762963 0-3.792593-3.792593-15.17037-3.792592-22.755555C189.62963 216.177778 216.177778 189.62963 246.518519 189.62963S303.407407 216.177778 303.407407 246.518519 276.859259 303.407407 246.518519 303.407407c-7.585185 0-15.17037-3.792593-22.755556-3.792592C182.044444 352.711111 155.496296 420.977778 151.703704 493.037037h113.777777c7.585185-121.362963 106.192593-216.177778 227.555556-227.555556V0C223.762963 11.377778 11.377778 223.762963 0 493.037037z" fill="#FBA14D" p-id="15020"></path><path d="M815.407407 246.518519m-170.666666 0a170.666667 170.666667 0 1 0 341.333333 0 170.666667 170.666667 0 1 0-341.333333 0Z" fill="#FFB800" p-id="15021"></path></svg>