<?xml version="1.0" standalone="no"?><!DOCTYPE svg PUBLIC "-//W3C//DTD SVG 1.1//EN" "http://www.w3.org/Graphics/SVG/1.1/DTD/svg11.dtd"><svg height="575" node-id="1" sillyvg="true" template-height="575" template-width="949" version="1.1" viewBox="0 0 949 575" width="949" xmlns="http://www.w3.org/2000/svg" xmlns:xlink="http://www.w3.org/1999/xlink"><defs node-id="174"></defs><path d="M 909.32 202.00 L 510.60 202.00 C 496.52 202.00 485.00 212.56 485.00 225.68 L 485.00 469.20 C 485.00 482.32 496.52 492.88 510.60 492.88 L 909.32 492.88 C 923.40 492.88 934.92 482.32 934.92 469.20 L 934.92 225.68 C 934.92 212.56 923.40 202.00 909.32 202.00 Z" fill="#a7c3ff" fill-rule="evenodd" node-id="176" stroke="none" target-height="290.88" target-width="449.91998" target-x="485" target-y="202"></path><path d="M 897.32 202.00 L 498.60 202.00 C 484.52 202.00 473.00 212.56 473.00 225.68 L 473.00 469.20 C 473.00 482.32 484.52 492.88 498.60 492.88 L 897.32 492.88 C 911.40 492.88 922.92 482.32 922.92 469.20 L 922.92 225.68 C 922.92 212.56 911.40 202.00 897.32 202.00 Z" fill="#c8daff" fill-rule="evenodd" node-id="178" stroke="none" target-height="290.88" target-width="449.91998" target-x="473" target-y="202"></path><path d="M 855.00 482.00 L 855.00 491.00 C 855.00 492.11 854.11 493.00 853.00 493.00 L 542.00 493.00 C 540.89 493.00 540.00 492.11 540.00 491.00 L 540.00 482.00 L 855.00 482.00 Z" fill="#a7c3ff" fill-rule="evenodd" node-id="180" stroke="none" target-height="11" target-width="315" target-x="540" target-y="482"></path><path d="M 904.36 469.84 L 491.56 469.84 L 491.56 225.04 L 904.36 225.04 L 904.36 469.84 Z" fill="#eaefff" fill-rule="nonzero" node-id="182" stroke="none" target-height="244.8" target-width="412.8" target-x="491.56" target-y="225.04"></path><g node-id="521"><path d="M 505.00 239.00 L 634.00 239.00 L 634.00 470.00 L 505.00 470.00 L 505.00 239.00 Z" fill="#95b2ee" fill-opacity="0.190197" fill-rule="evenodd" group-id="1" node-id="186" stroke="none" target-height="231" target-width="129" target-x="505" target-y="239"></path></g><path d="M 368.07 509.07 C 361.77 502.77 366.23 492.00 375.14 492.00 L 919.00 492.00 C 919.00 506.36 907.36 518.00 893.00 518.00 L 387.36 518.00 C 380.73 518.00 374.37 515.37 369.68 510.68 L 368.07 509.07 Z" fill="#c8daff" fill-rule="evenodd" node-id="189" stroke="none" target-height="26" target-width="557.23" target-x="361.77" target-y="492"></path><path d="M 368.07 509.07 C 361.77 502.77 366.23 492.00 375.14 492.00 L 919.00 492.00 C 919.00 506.36 907.36 518.00 893.00 518.00 L 387.36 518.00 C 380.73 518.00 374.37 515.37 369.68 510.68 L 368.07 509.07 Z" fill="#a7c3ff" fill-rule="evenodd" node-id="191" stroke="none" target-height="26" target-width="557.23" target-x="361.77" target-y="492"></path><path d="M 518.00 482.00 L 634.00 482.00 L 634.00 501.00 C 634.00 502.11 633.11 503.00 632.00 503.00 L 520.00 503.00 C 518.89 503.00 518.00 502.11 518.00 501.00 L 518.00 482.00 Z" fill="#a7c3ff" fill-rule="nonzero" node-id="193" stroke="none" target-height="21" target-width="116" target-x="518" target-y="482"></path><path d="M 368.07 509.07 C 361.77 502.77 366.23 492.00 375.14 492.00 L 919.00 492.00 C 919.00 506.36 907.36 518.00 893.00 518.00 L 387.36 518.00 C 380.73 518.00 374.37 515.37 369.68 510.68 L 368.07 509.07 Z" fill="#c8daff" fill-rule="evenodd" node-id="195" stroke="none" target-height="26" target-width="557.23" target-x="361.77" target-y="492"></path><path d="M 518.00 482.00 L 634.00 482.00 L 634.00 501.00 C 634.00 502.11 633.11 503.00 632.00 503.00 L 520.00 503.00 C 518.89 503.00 518.00 502.11 518.00 501.00 L 518.00 482.00 Z" fill="#a7c3ff" fill-rule="nonzero" node-id="197" stroke="none" target-height="21" target-width="116" target-x="518" target-y="482"></path><path d="M 767.00 499.00 C 767.00 495.13 770.13 492.00 774.00 492.00 L 919.00 492.00 C 919.00 506.36 907.36 518.00 893.00 518.00 L 774.00 518.00 C 770.13 518.00 767.00 514.87 767.00 511.00 L 767.00 499.00 Z" fill="#a7c3ff" fill-rule="evenodd" node-id="199" stroke="none" target-height="26" target-width="152" target-x="767" target-y="492"></path><path d="M 665.97 170.99 L 879.63 170.99 C 886.79 170.99 892.61 176.80 892.61 183.97 L 892.61 449.54 C 892.61 456.71 886.79 462.52 879.63 462.52 L 665.97 462.52 C 658.80 462.52 652.99 456.71 652.99 449.54 L 652.99 183.97 C 652.99 176.80 658.80 170.99 665.97 170.99 Z" fill="#d5e4ff" fill-rule="nonzero" node-id="201" stroke="none" target-height="291.52997" target-width="239.62" target-x="652.99" target-y="170.99"></path><path d="M 658.98 164.50 L 872.64 164.50 C 879.53 164.50 885.12 170.09 885.12 176.98 L 885.12 442.55 C 885.12 449.45 879.53 455.03 872.64 455.03 L 658.98 455.03 C 652.09 455.03 646.50 449.45 646.50 442.55 L 646.50 176.98 C 646.50 170.09 652.09 164.50 658.98 164.50 Z" fill="#ffffff" fill-rule="nonzero" node-id="203" stroke="#d2e0ff" stroke-linecap="butt" stroke-width="1" target-height="290.53" target-width="238.62" target-x="646.5" target-y="164.5"></path><path d="M 827.00 231.00 C 828.66 231.00 830.00 232.34 830.00 234.00 C 830.00 235.66 828.66 237.00 827.00 237.00 L 729.00 237.00 C 727.34 237.00 726.00 235.66 726.00 234.00 C 726.00 232.34 727.34 231.00 729.00 231.00 L 827.00 231.00 Z" fill="#4ed266" fill-rule="nonzero" node-id="205" stroke="none" target-height="6" target-width="104" target-x="726" target-y="231"></path><path d="M 771.00 215.00 C 772.66 215.00 774.00 216.34 774.00 218.00 C 774.00 219.66 772.66 221.00 771.00 221.00 L 729.00 221.00 C 727.34 221.00 726.00 219.66 726.00 218.00 C 726.00 216.34 727.34 215.00 729.00 215.00 L 771.00 215.00 Z" fill="#6c717d" fill-rule="nonzero" node-id="207" stroke="none" target-height="6" target-width="48" target-x="726" target-y="215"></path><path d="M 787.00 298.00 C 788.66 298.00 790.00 299.34 790.00 301.00 C 790.00 302.66 788.66 304.00 787.00 304.00 L 729.00 304.00 C 727.34 304.00 726.00 302.66 726.00 301.00 C 726.00 299.34 727.34 298.00 729.00 298.00 L 787.00 298.00 Z" fill="#467fff" fill-rule="nonzero" node-id="209" stroke="none" target-height="6" target-width="64" target-x="726" target-y="298"></path><path d="M 771.00 282.00 C 772.66 282.00 774.00 283.34 774.00 285.00 C 774.00 286.66 772.66 288.00 771.00 288.00 L 729.00 288.00 C 727.34 288.00 726.00 286.66 726.00 285.00 C 726.00 283.34 727.34 282.00 729.00 282.00 L 771.00 282.00 Z" fill="#6c717d" fill-rule="nonzero" node-id="211" stroke="none" target-height="6" target-width="48" target-x="726" target-y="282"></path><path d="M 811.00 358.00 C 812.66 358.00 814.00 359.34 814.00 361.00 C 814.00 362.66 812.66 364.00 811.00 364.00 L 729.00 364.00 C 727.34 364.00 726.00 362.66 726.00 361.00 C 726.00 359.34 727.34 358.00 729.00 358.00 L 811.00 358.00 Z" fill="#ffbf29" fill-rule="nonzero" node-id="213" stroke="none" target-height="6" target-width="88" target-x="726" target-y="358"></path><path d="M 771.00 342.00 C 772.66 342.00 774.00 343.34 774.00 345.00 C 774.00 346.66 772.66 348.00 771.00 348.00 L 729.00 348.00 C 727.34 348.00 726.00 346.66 726.00 345.00 C 726.00 343.34 727.34 342.00 729.00 342.00 L 771.00 342.00 Z" fill="#6c717d" fill-rule="nonzero" node-id="215" stroke="none" target-height="6" target-width="48" target-x="726" target-y="342"></path><path d="M 755.00 418.00 C 756.66 418.00 758.00 419.34 758.00 421.00 C 758.00 422.66 756.66 424.00 755.00 424.00 L 729.00 424.00 C 727.34 424.00 726.00 422.66 726.00 421.00 C 726.00 419.34 727.34 418.00 729.00 418.00 L 755.00 418.00 Z" fill="#ff5d8e" fill-rule="evenodd" node-id="217" stroke="none" target-height="6" target-width="32" target-x="726" target-y="418"></path><path d="M 771.00 402.00 C 772.66 402.00 774.00 403.34 774.00 405.00 C 774.00 406.66 772.66 408.00 771.00 408.00 L 729.00 408.00 C 727.34 408.00 726.00 406.66 726.00 405.00 C 726.00 403.34 727.34 402.00 729.00 402.00 L 771.00 402.00 Z" fill="#6c717d" fill-rule="nonzero" node-id="219" stroke="none" target-height="6" target-width="48" target-x="726" target-y="402"></path><path d="M 701.55 189.24 C 702.42 189.24 703.11 190.08 703.11 191.04 C 703.11 192.04 702.42 192.84 701.55 192.84 L 700.33 192.84 L 700.33 206.67 C 707.64 208.77 713.00 215.51 713.00 223.50 C 713.00 233.16 705.16 241.00 695.50 241.00 C 685.84 241.00 678.00 233.16 678.00 223.50 C 678.00 215.45 683.43 208.67 690.83 206.63 L 690.83 192.84 L 689.61 192.84 C 688.79 192.84 688.12 192.12 688.05 191.19 L 688.05 191.04 C 688.05 190.04 688.74 189.24 689.61 189.24 L 701.55 189.24 Z" fill="#c8daff" fill-rule="evenodd" node-id="221" stroke="none" target-height="51.759995" target-width="35" target-x="678" target-y="189.24"></path><path d="M 695.50 238.00 C 703.51 238.00 710.00 231.51 710.00 223.50 C 710.00 221.74 703.03 219.87 695.50 223.50 C 687.97 227.13 681.00 221.75 681.00 223.50 C 681.00 231.51 687.49 238.00 695.50 238.00 Z" fill="#4ed266" fill-rule="nonzero" node-id="223" stroke="none" target-height="18.130005" target-width="29" target-x="681" target-y="219.87"></path><path d="M 701.55 252.24 C 702.42 252.24 703.11 253.08 703.11 254.04 C 703.11 255.04 702.42 255.84 701.55 255.84 L 700.33 255.84 L 700.33 269.67 C 707.64 271.77 713.00 278.51 713.00 286.50 C 713.00 296.17 705.16 304.00 695.50 304.00 C 685.84 304.00 678.00 296.17 678.00 286.50 C 678.00 278.45 683.43 271.67 690.83 269.63 L 690.83 255.84 L 689.61 255.84 C 688.79 255.84 688.12 255.12 688.05 254.19 L 688.05 254.04 C 688.05 253.04 688.74 252.24 689.61 252.24 L 701.55 252.24 Z" fill="#c8daff" fill-rule="evenodd" node-id="225" stroke="none" target-height="51.759995" target-width="35" target-x="678" target-y="252.24"></path><path d="M 695.50 301.00 C 703.51 301.00 710.00 294.51 710.00 286.50 C 710.00 284.74 703.03 282.87 695.50 286.50 C 687.97 290.13 681.00 284.75 681.00 286.50 C 681.00 294.51 687.49 301.00 695.50 301.00 Z" fill="#467fff" fill-rule="nonzero" node-id="227" stroke="none" target-height="18.130005" target-width="29" target-x="681" target-y="282.87"></path><path d="M 701.55 315.24 C 702.42 315.24 703.11 316.08 703.11 317.04 C 703.11 318.04 702.42 318.84 701.55 318.84 L 700.33 318.84 L 700.33 332.67 C 707.64 334.77 713.00 341.51 713.00 349.50 C 713.00 359.17 705.16 367.00 695.50 367.00 C 685.84 367.00 678.00 359.17 678.00 349.50 C 678.00 341.45 683.43 334.67 690.83 332.63 L 690.83 318.84 L 689.61 318.84 C 688.79 318.84 688.12 318.12 688.05 317.19 L 688.05 317.04 C 688.05 316.04 688.74 315.24 689.61 315.24 L 701.55 315.24 Z" fill="#c8daff" fill-rule="evenodd" node-id="229" stroke="none" target-height="51.76001" target-width="35" target-x="678" target-y="315.24"></path><path d="M 695.50 364.00 C 703.51 364.00 710.00 357.51 710.00 349.50 C 710.00 347.74 703.03 345.87 695.50 349.50 C 687.97 353.13 681.00 347.75 681.00 349.50 C 681.00 357.51 687.49 364.00 695.50 364.00 Z" fill="#ffbf29" fill-rule="nonzero" node-id="231" stroke="none" target-height="18.130005" target-width="29" target-x="681" target-y="345.87"></path><path d="M 701.55 378.24 C 702.42 378.24 703.11 379.08 703.11 380.04 C 703.11 381.04 702.42 381.84 701.55 381.84 L 700.33 381.84 L 700.33 395.67 C 707.64 397.77 713.00 404.51 713.00 412.50 C 713.00 422.17 705.16 430.00 695.50 430.00 C 685.84 430.00 678.00 422.17 678.00 412.50 C 678.00 404.45 683.43 397.67 690.83 395.63 L 690.83 381.84 L 689.61 381.84 C 688.79 381.84 688.12 381.12 688.05 380.19 L 688.05 380.04 C 688.05 379.04 688.74 378.24 689.61 378.24 L 701.55 378.24 Z" fill="#c8daff" fill-rule="evenodd" node-id="233" stroke="none" target-height="51.76001" target-width="35" target-x="678" target-y="378.24"></path><path d="M 695.50 427.00 C 703.51 427.00 710.00 420.51 710.00 412.50 C 710.00 410.74 703.03 408.87 695.50 412.50 C 687.97 416.13 681.00 410.75 681.00 412.50 C 681.00 420.51 687.49 427.00 695.50 427.00 Z" fill="#ff5d8e" fill-rule="evenodd" node-id="235" stroke="none" target-height="18.130005" target-width="29" target-x="681" target-y="408.87"></path><path d="M 521.48 434.04 L 521.48 469.84 L 529.90 470.00 L 533.08 434.04 L 521.48 434.04 Z" fill="#ffc4a7" fill-rule="evenodd" node-id="237" stroke="none" target-height="35.95999" target-width="11.600037" target-x="521.48" target-y="434.04"></path><path d="M 521.48 469.75 L 524.31 451.27 L 528.61 469.75 L 586.28 469.75 C 586.28 469.75 582.06 393.66 581.97 392.07 C 581.88 390.49 581.60 388.91 581.60 388.91 L 523.74 389.23 C 523.74 389.23 520.59 396.80 520.02 413.23 C 519.46 429.66 521.48 469.75 521.48 469.75 Z" fill="#be065a" fill-rule="evenodd" node-id="239" stroke="none" target-height="80.84" target-width="66.82001" target-x="519.46" target-y="388.91"></path><path d="M 583.20 308.50 L 608.62 322.65 C 608.62 322.65 638.06 281.12 640.71 277.20 C 642.24 274.93 645.87 271.26 649.34 269.21 C 651.12 268.16 653.46 267.93 654.52 267.78 C 655.57 267.63 657.38 269.21 655.57 270.39 C 655.14 270.67 653.00 270.60 651.12 272.03 C 649.55 273.22 648.36 275.26 647.56 276.55 C 644.35 281.68 644.03 286.76 642.98 288.90 C 641.78 291.35 627.03 318.97 619.34 333.37 C 616.78 338.16 610.85 339.96 606.05 337.44 L 575.57 321.43 L 583.20 308.50 Z" fill="#ffc4a7" fill-rule="evenodd" node-id="241" stroke="none" target-height="72.32999" target-width="81.81" target-x="575.57" target-y="267.63"></path><path d="M 644.86 277.11 C 644.86 277.11 648.69 277.27 649.45 277.59 C 650.21 277.91 652.14 281.08 652.14 281.79 C 652.14 282.50 650.89 286.85 649.45 286.85 C 648.38 286.85 649.51 284.14 649.45 282.46 C 649.43 281.90 648.20 281.29 648.00 281.10 C 647.22 280.36 643.86 281.79 643.86 281.79 L 644.86 277.11 Z" fill="#ffc4a7" fill-rule="evenodd" node-id="243" stroke="none" target-height="9.740021" target-width="8.280029" target-x="643.86" target-y="277.11"></path><path d="M 642.45 289.17 C 642.45 289.17 649.51 289.15 650.48 287.93 C 651.45 286.72 655.78 280.10 653.96 279.37 C 652.13 278.64 650.36 282.95 649.00 283.34 C 647.65 283.74 643.58 282.77 643.58 282.77 L 642.45 289.17 Z" fill="#ffc4a7" fill-rule="evenodd" node-id="245" stroke="none" target-height="10.529999" target-width="13.330017" target-x="642.45" target-y="278.64"></path><path d="M 574.59 302.25 C 570.62 300.20 565.75 301.68 563.58 305.58 L 562.59 307.37 C 560.29 311.52 561.95 316.75 566.22 318.81 L 609.88 339.82 C 612.78 341.23 616.28 340.19 617.96 337.44 L 626.07 324.18 L 612.84 315.02 L 608.98 320.04 L 574.59 302.25 Z" fill="#313132" fill-rule="evenodd" node-id="247" stroke="none" target-height="41.03" target-width="65.78003" target-x="560.29" target-y="300.2"></path><path d="M 575.71 311.65 L 592.60 331.52 L 582.33 326.55 L 575.71 311.65 Z" fill="#080708" fill-opacity="0.223011" fill-rule="evenodd" node-id="249" stroke="none" target-height="19.869995" target-width="16.889954" target-x="575.71" target-y="311.65"></path><path d="M 523.89 312.72 C 522.61 307.70 526.03 302.69 531.17 302.04 L 552.67 299.34 L 569.99 301.36 C 571.19 301.49 572.23 302.23 572.74 303.32 C 575.25 308.70 582.65 325.10 583.08 332.19 C 583.47 338.73 577.87 346.03 577.87 352.74 C 577.87 359.44 580.24 388.91 580.24 388.91 L 526.09 392.52 C 525.57 392.55 525.16 392.08 525.27 391.57 L 533.78 351.48 L 523.89 312.72 Z" fill="#ffc4a7" fill-rule="evenodd" node-id="251" stroke="none" target-height="93.20999" target-width="60.859985" target-x="522.61" target-y="299.34"></path><path d="M 523.89 312.71 C 522.61 307.69 526.02 302.68 531.16 302.03 L 543.66 300.44 C 543.66 300.44 546.91 310.48 556.28 310.48 C 565.65 310.48 562.97 300.49 562.97 300.49 L 570.01 301.35 C 571.20 301.49 572.23 302.22 572.74 303.31 C 575.24 308.68 582.65 325.10 583.08 332.19 C 583.47 338.73 577.87 346.03 577.87 352.74 C 577.87 359.44 581.90 391.01 581.90 391.01 L 522.16 394.20 L 533.78 351.48 L 523.89 312.71 Z" fill="#be065a" fill-rule="evenodd" node-id="253" stroke="none" target-height="93.76001" target-width="61.309998" target-x="522.16" target-y="300.44"></path><path d="M 523.16 312.75 C 521.88 307.71 525.31 302.70 530.46 302.06 L 543.66 300.44 C 543.66 300.44 546.91 310.48 556.28 310.48 C 565.65 310.48 562.97 300.49 562.97 300.49 L 570.72 301.36 C 571.93 301.50 572.97 302.23 573.49 303.33 C 576.00 308.72 583.39 325.11 583.82 332.19 C 584.21 338.73 578.24 346.03 578.24 352.74 C 578.24 359.44 581.90 372.54 581.90 372.54 C 581.90 372.54 575.71 378.39 571.12 373.08 C 566.52 367.77 567.56 342.21 565.65 335.60 C 563.75 329.00 558.72 315.99 558.72 315.99 C 558.72 315.99 556.96 324.79 556.28 335.60 C 555.61 346.41 560.40 363.89 553.09 373.08 C 546.61 381.23 529.10 376.96 525.21 375.89 C 524.78 375.77 524.56 375.32 524.71 374.90 L 533.04 351.48 L 523.16 312.75 Z" fill="#313132" fill-rule="evenodd" node-id="255" stroke="none" target-height="80.79001" target-width="62.330017" target-x="521.88" target-y="300.44"></path><path d="M 558.27 314.37 L 553.27 316.59 C 552.87 316.77 552.41 316.57 552.27 316.16 L 552.23 316.04 C 551.83 314.87 551.76 313.60 552.05 312.39 C 552.13 312.02 552.51 311.78 552.89 311.87 L 558.15 313.09 L 558.27 314.37 Z" fill="#e3e9ff" fill-rule="evenodd" node-id="257" stroke="none" target-height="4.98999" target-width="6.51001" target-x="551.76" target-y="311.78"></path><path d="M 557.91 314.34 L 562.94 315.55 C 563.33 315.64 563.71 315.38 563.78 314.99 L 563.79 314.87 C 563.98 313.73 563.83 312.55 563.38 311.49 C 563.24 311.16 562.86 311.01 562.53 311.15 L 557.82 313.14 L 557.91 314.34 Z" fill="#e3e9ff" fill-rule="evenodd" node-id="259" stroke="none" target-height="4.630005" target-width="6.159973" target-x="557.82" target-y="311.01"></path><path d="M 558.00 314.58 C 558.61 314.63 559.14 314.17 559.18 313.56 C 559.23 312.94 558.76 312.42 558.15 312.37 C 557.54 312.33 557.01 312.79 556.97 313.40 C 556.93 314.01 557.39 314.54 558.00 314.58 Z" fill="#ff97c7" fill-rule="evenodd" node-id="261" stroke="none" target-height="2.3000183" target-width="2.2999878" target-x="556.93" target-y="312.33"></path><path d="M 537.59 315.99 L 531.87 345.32 L 527.37 329.71 L 537.59 315.99 Z" fill="#080708" fill-opacity="0.223011" fill-rule="evenodd" node-id="263" stroke="none" target-height="29.330017" target-width="10.220032" target-x="527.37" target-y="315.99"></path><path d="M 534.68 320.05 L 516.70 354.25 C 516.70 354.25 559.70 354.60 562.15 354.60 C 564.60 354.60 572.30 367.83 572.62 368.41 C 572.95 368.98 572.51 370.77 570.41 369.07 C 568.32 367.38 567.80 366.43 566.07 366.43 C 564.34 366.43 561.84 369.66 559.07 368.89 C 556.29 368.12 553.15 365.10 552.61 365.10 C 552.26 365.10 528.08 366.98 510.74 368.33 C 503.11 368.93 497.74 360.97 501.14 354.11 L 521.75 312.43 L 534.68 320.05 Z" fill="#ffc4a7" fill-rule="evenodd" node-id="265" stroke="none" target-height="58.339996" target-width="75.21002" target-x="497.74" target-y="312.43"></path><path d="M 523.13 307.23 C 525.21 302.99 530.41 301.36 534.54 303.65 L 536.42 304.69 C 540.31 306.85 541.79 311.70 539.77 315.66 L 520.74 352.91 L 527.37 353.65 L 524.40 369.79 L 512.00 369.79 C 502.98 369.79 497.08 360.32 501.05 352.22 L 523.13 307.23 Z" fill="#313132" fill-rule="evenodd" node-id="267" stroke="none" target-height="68.43002" target-width="44.70999" target-x="497.08" target-y="301.36"></path><path d="M 562.01 355.32 C 562.01 355.32 570.52 355.08 571.07 356.30 C 571.62 357.52 564.06 358.72 564.06 358.72 L 562.01 355.32 Z" fill="#ffc4a7" fill-rule="evenodd" node-id="269" stroke="none" target-height="3.6400146" target-width="9.609985" target-x="562.01" target-y="355.08"></path><path d="M 553.94 258.90 C 553.94 258.90 544.66 253.48 540.34 262.75 C 537.68 268.44 539.96 272.83 536.35 277.89 C 531.42 284.78 540.16 296.72 540.16 296.72 C 540.16 296.72 546.85 293.48 553.94 295.32 C 558.91 288.39 553.94 258.90 553.94 258.90 Z" fill="#842404" fill-rule="evenodd" node-id="271" stroke="none" target-height="43.240005" target-width="27.48999" target-x="531.42" target-y="253.48"></path><path d="M 574.18 263.85 C 574.18 263.85 577.75 275.91 575.72 282.33 C 573.68 288.74 575.74 295.21 575.74 295.21 C 575.74 295.21 567.89 294.27 557.36 294.27 C 554.78 288.97 571.14 266.81 571.14 266.81 L 574.18 263.85 Z" fill="#842404" fill-rule="evenodd" node-id="273" stroke="none" target-height="31.359985" target-width="22.96997" target-x="554.78" target-y="263.85"></path><path d="M 547.34 301.89 C 547.34 305.56 550.31 308.52 553.97 308.52 C 557.87 308.52 560.93 305.18 560.58 301.30 L 559.82 292.69 C 559.82 292.69 568.08 293.35 570.87 289.35 C 573.67 285.36 573.28 264.56 573.28 264.56 L 547.34 264.56 C 547.34 264.56 547.34 269.71 547.34 271.50 C 539.42 271.50 539.42 281.07 547.34 281.07 C 547.34 287.21 547.34 295.94 547.34 301.89 Z" fill="#ffc4a7" fill-rule="evenodd" node-id="275" stroke="none" target-height="43.95999" target-width="34.25" target-x="539.42" target-y="264.56"></path><path d="M 568.15 277.25 L 568.15 284.11 C 568.15 284.11 571.27 283.45 571.27 282.43 C 571.27 281.42 568.15 277.25 568.15 277.25 Z" fill="#f19b93" fill-rule="evenodd" node-id="277" stroke="none" target-height="6.8599854" target-width="3.119995" target-x="568.15" target-y="277.25"></path><path d="M 559.82 292.69 C 559.82 292.69 557.36 292.36 555.48 291.77 C 553.59 291.17 551.20 289.97 551.20 289.97 C 551.20 289.97 554.44 293.12 556.14 294.47 C 557.85 295.82 560.22 297.14 560.22 297.14 L 559.82 292.69 Z" fill="#f19b93" fill-rule="evenodd" node-id="279" stroke="none" target-height="7.1700134" target-width="9.0199585" target-x="551.2" target-y="289.97"></path><path d="M 547.67 278.80 L 549.39 273.87 C 549.80 272.70 551.02 272.01 552.24 272.22 C 555.65 272.81 562.33 273.77 566.32 272.95 C 573.08 271.56 574.93 268.09 574.93 268.09 C 574.93 268.09 577.16 256.35 568.15 252.38 C 559.14 248.41 546.69 258.99 546.69 258.99 L 545.09 271.82 L 546.69 271.45 L 547.67 278.80 Z" fill="#842404" fill-rule="evenodd" node-id="281" stroke="none" target-height="30.389984" target-width="32.069946" target-x="545.09" target-y="248.41"></path><path d="M 448.72 187.80 C 446.56 187.80 444.80 189.56 444.80 191.72 L 444.80 228.57 C 444.80 230.74 446.56 232.49 448.72 232.49 L 525.18 232.49 L 540.81 244.60 L 540.81 232.49 L 544.88 232.49 C 547.04 232.49 548.80 230.74 548.80 228.57 L 548.80 191.72 C 548.80 189.56 547.04 187.80 544.88 187.80 L 448.72 187.80 Z" fill="#ffbf29" fill-rule="nonzero" node-id="283" stroke="none" target-height="56.800003" target-width="104" target-x="444.8" target-y="187.8"></path><path d="M 534.99 205.66 L 458.30 205.66 C 457.30 205.66 456.50 204.85 456.50 203.86 C 456.50 202.86 457.30 202.06 458.30 202.06 L 534.99 202.06 C 535.98 202.06 536.79 202.86 536.79 203.86 C 536.79 204.85 535.98 205.66 534.99 205.66 Z" fill="#ffffff" fill-rule="nonzero" node-id="285" stroke="none" target-height="3.600006" target-width="80.28998" target-x="456.5" target-y="202.06"></path><path d="M 534.99 217.66 L 470.30 217.66 C 469.30 217.66 468.50 216.85 468.50 215.86 C 468.50 214.86 469.30 214.06 470.30 214.06 L 534.99 214.06 C 535.98 214.06 536.79 214.86 536.79 215.86 C 536.79 216.85 535.98 217.66 534.99 217.66 Z" fill="#ffffff" fill-rule="nonzero" node-id="287" stroke="none" target-height="3.600006" target-width="68.28998" target-x="468.5" target-y="214.06"></path><path d="M 345.00 523.00 C 345.00 519.69 347.69 517.00 351.00 517.00 L 943.00 517.00 C 946.31 517.00 949.00 519.69 949.00 523.00 L 949.00 566.00 C 949.00 569.31 946.31 572.00 943.00 572.00 L 351.00 572.00 C 347.69 572.00 345.00 569.31 345.00 566.00 L 345.00 523.00 Z" fill="#a7c3ff" fill-rule="evenodd" node-id="289" stroke="none" target-height="55" target-width="604" target-x="345" target-y="517"></path><path d="M 795.00 523.00 C 795.00 519.69 797.69 517.00 801.00 517.00 L 943.00 517.00 C 946.31 517.00 949.00 519.69 949.00 523.00 L 949.00 566.00 C 949.00 569.31 946.31 572.00 943.00 572.00 L 801.00 572.00 C 797.69 572.00 795.00 569.31 795.00 566.00 L 795.00 523.00 Z" fill="#95b2ee" fill-rule="evenodd" node-id="291" stroke="none" target-height="55" target-width="154" target-x="795" target-y="517"></path><path d="M 471.84 437.20 L 484.96 437.20 L 484.96 572.44 L 471.84 572.44 L 471.84 437.20 Z" fill="#f5ac00" fill-rule="nonzero" node-id="293" stroke="none" target-height="135.23999" target-width="13.119995" target-x="471.84" target-y="437.2"></path><path d="M 470.32 437.20 L 477.40 437.20 L 477.40 572.44 L 470.32 572.44 L 470.32 437.20 Z" fill="#ffbf29" fill-rule="nonzero" node-id="295" stroke="none" target-height="135.23999" target-width="7.0799866" target-x="470.32" target-y="437.2"></path><path d="M 404.64 437.20 L 417.76 437.20 L 417.76 572.44 L 404.64 572.44 L 404.64 437.20 Z" fill="#f5ac00" fill-rule="nonzero" node-id="297" stroke="none" target-height="135.23999" target-width="13.119995" target-x="404.64" target-y="437.2"></path><path d="M 403.12 437.20 L 410.20 437.20 L 410.20 572.44 L 403.12 572.44 L 403.12 437.20 Z" fill="#ffbf29" fill-rule="nonzero" node-id="299" stroke="none" target-height="135.23999" target-width="7.080017" target-x="403.12" target-y="437.2"></path><path d="M 329.64 437.20 L 342.76 437.20 L 342.76 572.44 L 329.64 572.44 L 329.64 437.20 Z" fill="#f5ac00" fill-rule="nonzero" node-id="301" stroke="none" target-height="135.23999" target-width="13.119995" target-x="329.64" target-y="437.2"></path><path d="M 328.16 437.20 L 335.24 437.20 L 335.24 572.44 L 328.16 572.44 L 328.16 437.20 Z" fill="#ffbf29" fill-rule="nonzero" node-id="303" stroke="none" target-height="135.23999" target-width="7.0799866" target-x="328.16" target-y="437.2"></path><path d="M 319.00 434.68 C 319.00 433.75 319.75 433.00 320.68 433.00 L 498.40 433.00 C 499.33 433.00 500.08 433.75 500.08 434.68 L 500.08 443.92 C 500.08 444.85 499.33 445.60 498.40 445.60 L 320.68 445.60 C 319.75 445.60 319.00 444.85 319.00 443.92 L 319.00 434.68 Z" fill="#f5ac00" fill-rule="nonzero" node-id="305" stroke="none" target-height="12.600006" target-width="181.07999" target-x="319" target-y="433"></path><path d="M 318.00 434.68 C 318.00 433.75 318.75 433.00 319.68 433.00 L 414.40 433.00 C 415.33 433.00 416.08 433.75 416.08 434.68 L 416.08 443.92 C 416.08 444.85 415.33 445.60 414.40 445.60 L 319.68 445.60 C 318.75 445.60 318.00 444.85 318.00 443.92 L 318.00 434.68 Z" fill="#ffbf29" fill-rule="nonzero" node-id="307" stroke="none" target-height="12.600006" target-width="98.07999" target-x="318" target-y="433"></path><path d="M 400.00 425.00 C 400.00 423.89 399.11 423.00 398.00 423.00 L 344.00 423.00 C 342.89 423.00 342.00 423.89 342.00 425.00 L 342.00 431.00 C 342.00 432.11 342.89 433.00 344.00 433.00 L 398.00 433.00 C 399.11 433.00 400.00 432.11 400.00 431.00 L 400.00 425.00 Z" fill="#f5ac00" fill-rule="nonzero" node-id="309" stroke="none" target-height="10" target-width="58" target-x="342" target-y="423"></path><path d="M 400.00 425.00 C 400.00 423.89 399.11 423.00 398.00 423.00 L 369.00 423.00 C 367.89 423.00 367.00 423.89 367.00 425.00 L 367.00 431.00 C 367.00 432.11 367.89 433.00 369.00 433.00 L 398.00 433.00 C 399.11 433.00 400.00 432.11 400.00 431.00 L 400.00 425.00 Z" fill="#ffbf29" fill-rule="nonzero" node-id="311" stroke="none" target-height="10" target-width="33" target-x="367" target-y="423"></path><path d="M 398.00 425.80 C 398.00 424.81 397.19 424.00 396.20 424.00 L 343.00 424.00 C 342.45 424.00 342.00 424.45 342.00 425.00 L 342.00 431.00 C 342.00 431.55 342.45 432.00 343.00 432.00 L 396.20 432.00 C 397.19 432.00 398.00 431.19 398.00 430.20 L 398.00 425.80 Z" fill="#eaefff" fill-rule="nonzero" node-id="313" stroke="none" target-height="8" target-width="56" target-x="342" target-y="424"></path><path d="M 367.00 425.80 C 367.00 424.81 366.19 424.00 365.20 424.00 L 343.00 424.00 C 342.45 424.00 342.00 424.45 342.00 425.00 L 342.00 431.00 C 342.00 431.55 342.45 432.00 343.00 432.00 L 365.20 432.00 C 366.19 432.00 367.00 431.19 367.00 430.20 L 367.00 425.80 Z" fill="#c1d7ff" fill-rule="evenodd" node-id="315" stroke="none" target-height="8" target-width="25" target-x="342" target-y="424"></path><path d="M 262.84 432.20 L 275.96 432.20 L 275.96 567.44 L 262.84 567.44 L 262.84 432.20 Z" fill="#f5ac00" fill-rule="nonzero" node-id="317" stroke="none" target-height="135.23999" target-width="13.119995" target-x="262.84" target-y="432.2"></path><path d="M 261.32 432.20 L 268.40 432.20 L 268.40 567.44 L 261.32 567.44 L 261.32 432.20 Z" fill="#ffbf29" fill-rule="nonzero" node-id="319" stroke="none" target-height="135.23999" target-width="7.0799866" target-x="261.32" target-y="432.2"></path><path d="M 195.64 432.20 L 208.76 432.20 L 208.76 567.44 L 195.64 567.44 L 195.64 432.20 Z" fill="#f5ac00" fill-rule="nonzero" node-id="321" stroke="none" target-height="135.23999" target-width="13.119995" target-x="195.64" target-y="432.2"></path><path d="M 194.12 432.20 L 201.20 432.20 L 201.20 567.44 L 194.12 567.44 L 194.12 432.20 Z" fill="#ffbf29" fill-rule="nonzero" node-id="323" stroke="none" target-height="135.23999" target-width="7.080002" target-x="194.12" target-y="432.2"></path><path d="M 120.64 432.20 L 133.76 432.20 L 133.76 567.44 L 120.64 567.44 L 120.64 432.20 Z" fill="#f5ac00" fill-rule="nonzero" node-id="325" stroke="none" target-height="135.23999" target-width="13.119995" target-x="120.64" target-y="432.2"></path><path d="M 119.16 432.20 L 126.24 432.20 L 126.24 567.44 L 119.16 567.44 L 119.16 432.20 Z" fill="#ffbf29" fill-rule="nonzero" node-id="327" stroke="none" target-height="135.23999" target-width="7.079994" target-x="119.16" target-y="432.2"></path><path d="M 110.00 429.68 C 110.00 428.75 110.75 428.00 111.68 428.00 L 289.40 428.00 C 290.33 428.00 291.08 428.75 291.08 429.68 L 291.08 438.92 C 291.08 439.85 290.33 440.60 289.40 440.60 L 111.68 440.60 C 110.75 440.60 110.00 439.85 110.00 438.92 L 110.00 429.68 Z" fill="#f5ac00" fill-rule="nonzero" node-id="329" stroke="none" target-height="12.600006" target-width="181.07999" target-x="110" target-y="428"></path><path d="M 109.00 429.68 C 109.00 428.75 109.75 428.00 110.68 428.00 L 205.40 428.00 C 206.33 428.00 207.08 428.75 207.08 429.68 L 207.08 438.92 C 207.08 439.85 206.33 440.60 205.40 440.60 L 110.68 440.60 C 109.75 440.60 109.00 439.85 109.00 438.92 L 109.00 429.68 Z" fill="#ffbf29" fill-rule="nonzero" node-id="331" stroke="none" target-height="12.600006" target-width="98.08" target-x="109" target-y="428"></path><path d="M 155.00 420.00 C 155.00 418.89 155.90 418.00 157.00 418.00 L 211.00 418.00 C 212.10 418.00 213.00 418.89 213.00 420.00 L 213.00 426.00 C 213.00 427.11 212.10 428.00 211.00 428.00 L 157.00 428.00 C 155.90 428.00 155.00 427.11 155.00 426.00 L 155.00 420.00 Z" fill="#ff326f" fill-rule="evenodd" node-id="333" stroke="none" target-height="10" target-width="58" target-x="155" target-y="418"></path><path d="M 155.00 420.00 C 155.00 418.89 155.90 418.00 157.00 418.00 L 186.00 418.00 C 187.10 418.00 188.00 418.89 188.00 420.00 L 188.00 426.00 C 188.00 427.11 187.10 428.00 186.00 428.00 L 157.00 428.00 C 155.90 428.00 155.00 427.11 155.00 426.00 L 155.00 420.00 Z" fill="#ff5d8e" fill-rule="evenodd" node-id="335" stroke="none" target-height="10" target-width="33" target-x="155" target-y="418"></path><path d="M 157.00 420.80 C 157.00 419.81 157.81 419.00 158.80 419.00 L 212.00 419.00 C 212.55 419.00 213.00 419.45 213.00 420.00 L 213.00 426.00 C 213.00 426.55 212.55 427.00 212.00 427.00 L 158.80 427.00 C 157.81 427.00 157.00 426.19 157.00 425.20 L 157.00 420.80 Z" fill="#eaefff" fill-rule="nonzero" node-id="337" stroke="none" target-height="8" target-width="56" target-x="157" target-y="419"></path><path d="M 188.00 420.80 C 188.00 419.81 188.81 419.00 189.80 419.00 L 212.00 419.00 C 212.55 419.00 213.00 419.45 213.00 420.00 L 213.00 426.00 C 213.00 426.55 212.55 427.00 212.00 427.00 L 189.80 427.00 C 188.81 427.00 188.00 426.19 188.00 425.20 L 188.00 420.80 Z" fill="#c1d7ff" fill-rule="evenodd" node-id="339" stroke="none" target-height="8" target-width="25" target-x="188" target-y="419"></path><path d="M 86.35 311.17 L 90.06 318.46 C 90.17 318.67 90.06 318.92 89.83 318.99 L 86.35 319.92 L 86.35 311.17 Z" fill="#b9726b" fill-rule="evenodd" node-id="341" stroke="none" target-height="8.75" target-width="3.8199997" target-x="86.35" target-y="311.17"></path><path d="M 61.50 340.87 L 77.17 340.87 L 75.69 333.51 C 75.69 333.51 82.13 334.20 85.06 330.01 C 88.00 325.82 87.59 304.02 87.59 304.02 L 61.50 304.02 L 61.50 340.87 Z" fill="#e09282" fill-rule="evenodd" node-id="343" stroke="none" target-height="36.850006" target-width="26.5" target-x="61.5" target-y="304.02"></path><path d="M 60.35 326.52 C 60.81 327.60 61.87 328.28 63.04 328.28 L 67.19 328.28 C 68.41 328.28 69.51 327.54 69.90 326.38 C 70.62 324.25 71.70 320.71 72.09 317.57 C 72.71 312.69 76.97 311.34 76.97 311.34 L 77.55 316.48 C 77.64 317.31 78.34 317.94 79.18 317.94 C 80.08 317.94 80.82 317.20 80.82 316.29 L 80.82 309.39 C 80.82 307.36 82.29 305.62 84.30 305.30 L 87.64 304.75 C 87.64 304.75 88.15 297.35 84.09 293.94 C 80.02 290.52 69.87 290.16 64.05 292.12 C 58.24 294.07 53.78 299.93 54.15 306.65 C 54.44 311.96 58.61 322.37 60.35 326.52 Z" fill="#321111" fill-rule="evenodd" node-id="345" stroke="none" target-height="38.119995" target-width="34.370003" target-x="53.78" target-y="290.16"></path><path d="M 61.54 324.03 C 66.85 324.03 71.15 319.72 71.15 314.42 C 71.15 309.11 66.85 304.81 61.54 304.81 C 56.24 304.81 51.93 309.11 51.93 314.42 C 51.93 319.72 56.24 324.03 61.54 324.03 Z" fill="#321111" fill-rule="evenodd" node-id="347" stroke="none" target-height="19.220001" target-width="19.220001" target-x="51.93" target-y="304.81"></path><path d="M 58.77 313.31 C 64.18 313.31 68.56 308.92 68.56 303.51 C 68.56 298.10 64.18 293.72 58.77 293.72 C 53.36 293.72 48.98 298.10 48.98 303.51 C 48.98 308.92 53.36 313.31 58.77 313.31 Z" fill="#321111" fill-rule="evenodd" node-id="349" stroke="none" target-height="19.589996" target-width="19.579998" target-x="48.98" target-y="293.72"></path><path d="M 73.74 303.70 C 79.45 303.70 84.09 299.06 84.09 293.35 C 84.09 287.63 79.45 283.00 73.74 283.00 C 68.02 283.00 63.39 287.63 63.39 293.35 C 63.39 299.06 68.02 303.70 73.74 303.70 Z" fill="#321111" fill-rule="evenodd" node-id="351" stroke="none" target-height="20.700012" target-width="20.699997" target-x="63.39" target-y="283"></path><path d="M 62.10 300.74 C 65.67 300.74 68.56 297.85 68.56 294.27 C 68.56 290.70 65.67 287.81 62.10 287.81 C 58.52 287.81 55.63 290.70 55.63 294.27 C 55.63 297.85 58.52 300.74 62.10 300.74 Z" fill="#321111" fill-rule="evenodd" node-id="353" stroke="none" target-height="12.929993" target-width="12.9299965" target-x="55.63" target-y="287.81"></path><path d="M 85.20 303.33 C 90.30 303.33 94.44 299.19 94.44 294.09 C 94.44 288.99 90.30 284.85 85.20 284.85 C 80.09 284.85 75.96 288.99 75.96 294.09 C 75.96 299.19 80.09 303.33 85.20 303.33 Z" fill="#321111" fill-rule="evenodd" node-id="355" stroke="none" target-height="18.47998" target-width="18.480003" target-x="75.96" target-y="284.85"></path><path d="M 88.89 305.92 C 92.98 305.92 96.28 302.61 96.28 298.52 C 96.28 294.44 92.98 291.13 88.89 291.13 C 84.81 291.13 81.50 294.44 81.50 298.52 C 81.50 302.61 84.81 305.92 88.89 305.92 Z" fill="#321111" fill-rule="evenodd" node-id="357" stroke="none" target-height="14.790009" target-width="14.779999" target-x="81.5" target-y="291.13"></path><path d="M 82.61 309.24 C 87.71 309.24 91.85 305.11 91.85 300.00 C 91.85 294.90 87.71 290.76 82.61 290.76 C 77.51 290.76 73.37 294.90 73.37 300.00 C 73.37 305.11 77.51 309.24 82.61 309.24 Z" fill="#321111" fill-rule="evenodd" node-id="359" stroke="none" target-height="18.47998" target-width="18.479996" target-x="73.37" target-y="290.76"></path><path d="M 75.69 333.51 L 72.42 333.04 L 77.17 340.87 L 75.69 333.51 Z" fill="#b9726b" fill-rule="evenodd" node-id="361" stroke="none" target-height="7.8299866" target-width="4.75" target-x="72.42" target-y="333.04"></path><path d="M 28.62 358.47 L 4.05 389.99 C 2.17 392.40 1.97 395.71 3.54 398.33 L 25.66 435.21 C 25.66 435.21 24.56 450.71 30.22 452.70 C 31.32 453.09 33.22 461.95 35.44 459.25 C 36.05 458.51 36.34 441.95 36.34 441.95 L 33.85 429.83 L 22.94 393.99 L 41.24 368.80 L 28.62 358.47 Z" fill="#e09282" fill-rule="evenodd" node-id="363" stroke="none" target-height="103.48001" target-width="39.27" target-x="1.97" target-y="358.47"></path><path d="M 38.54 342.77 C 42.02 338.75 48.10 338.33 52.11 341.82 L 54.08 343.54 C 58.08 347.02 58.50 353.07 55.03 357.08 L 33.42 382.01 L 16.96 367.66 L 38.54 342.77 Z" fill="#b7c3d1" fill-rule="evenodd" node-id="365" stroke="none" target-height="43.680023" target-width="41.54" target-x="16.96" target-y="338.33"></path><path d="M 38.35 361.04 L 32.34 381.04 L 33.42 382.01 L 37.36 377.47 L 38.35 361.04 Z" fill="#080708" fill-opacity="0.245739" fill-rule="evenodd" node-id="367" stroke="none" target-height="20.970001" target-width="6.0099983" target-x="32.34" target-y="361.04"></path><path d="M 73.66 535.49 L 86.96 535.49 L 82.16 553.97 L 69.96 553.97 L 73.66 535.49 Z" fill="#616988" fill-rule="evenodd" node-id="369" stroke="none" target-height="18.47998" target-width="17" target-x="69.96" target-y="535.49"></path><path d="M 71.95 544.37 C 71.95 544.37 70.33 549.90 69.73 553.57 C 69.42 555.49 67.99 558.62 67.67 562.98 C 67.58 564.18 111.58 561.84 111.36 561.13 C 110.73 559.14 109.39 558.14 107.32 558.14 C 103.11 558.14 95.84 557.52 93.31 556.00 C 90.79 554.49 84.60 543.67 84.60 543.67 C 84.60 543.67 81.54 544.81 79.50 544.81 C 77.45 544.81 71.95 544.37 71.95 544.37 Z" fill="#283845" fill-rule="evenodd" node-id="371" stroke="none" target-height="20.51001" target-width="44" target-x="67.58" target-y="543.67"></path><path d="M 103.01 558.08 C 104.58 558.20 106.08 558.25 107.32 558.25 C 110.13 558.25 111.60 560.06 111.75 563.69 C 105.98 566.36 101.37 567.69 97.92 567.69 C 96.81 567.69 91.38 566.29 85.42 566.13 C 83.17 566.07 81.00 567.31 78.06 567.23 L 69.06 566.93 C 68.52 566.91 67.97 566.89 67.40 566.87 L 67.54 564.86 C 67.61 563.78 67.69 562.76 67.76 561.81 L 68.84 561.98 C 72.72 562.57 75.70 562.89 77.80 562.95 C 80.42 563.01 83.31 561.38 85.42 561.42 L 86.75 561.44 C 93.11 561.59 97.71 562.02 99.01 561.79 C 101.45 561.36 103.38 560.87 104.80 560.33 L 103.01 558.08 Z" fill="#7680a4" fill-rule="evenodd" node-id="373" stroke="none" target-height="9.609985" target-width="44.35" target-x="67.4" target-y="558.08"></path><path d="M 57.84 469.80 C 77.15 469.80 95.68 469.80 95.68 469.80 C 95.68 469.80 91.49 477.14 87.22 487.82 C 82.95 498.49 71.37 543.26 71.37 543.26 L 85.95 543.26 L 124.38 465.88 C 129.97 454.63 122.41 441.30 109.89 440.30 L 65.20 436.75 L 65.20 432.00 L 33.54 432.00 C 33.54 432.00 32.28 469.80 57.84 469.80 Z" fill="#03344b" fill-rule="evenodd" node-id="375" stroke="none" target-height="111.26001" target-width="97.69" target-x="32.28" target-y="432"></path><path d="M 156.45 535.12 L 169.75 535.12 L 173.45 553.97 L 161.25 553.97 L 156.45 535.12 Z" fill="#616988" fill-rule="evenodd" node-id="377" stroke="none" target-height="18.849976" target-width="17" target-x="156.45" target-y="535.12"></path><path d="M 158.81 545.11 C 158.81 545.11 160.02 559.37 159.70 563.72 C 159.61 564.92 203.61 562.58 203.39 561.87 C 202.76 559.88 201.42 558.88 199.35 558.88 C 195.14 558.88 187.87 558.26 185.34 556.74 C 182.82 555.23 171.83 544.41 171.83 544.41 C 171.83 544.41 168.77 545.55 166.73 545.55 C 164.68 545.55 158.81 545.11 158.81 545.11 Z" fill="#364b5d" fill-rule="evenodd" node-id="379" stroke="none" target-height="20.51001" target-width="44.800003" target-x="158.81" target-y="544.41"></path><path d="M 195.04 558.82 C 196.61 558.93 198.11 558.99 199.35 558.99 C 202.16 558.99 203.63 560.80 203.78 564.43 C 198.01 567.10 193.40 568.43 189.95 568.43 L 188.20 568.41 C 184.22 568.33 174.63 568.06 159.43 567.61 L 159.53 566.16 C 159.62 564.75 159.72 563.44 159.82 562.24 L 165.87 562.43 C 180.58 562.86 188.97 562.89 191.04 562.53 C 193.48 562.10 195.41 561.61 196.83 561.07 L 195.04 558.82 Z" fill="#7680a4" fill-rule="evenodd" node-id="381" stroke="none" target-height="9.609985" target-width="44.350006" target-x="159.43" target-y="558.82"></path><path d="M 46.68 436.81 C 46.68 436.81 46.68 473.55 73.94 473.55 C 93.24 473.55 134.31 473.55 134.31 473.55 C 134.31 473.55 133.88 484.44 137.69 494.02 C 141.49 503.60 157.68 543.68 157.68 543.68 L 173.00 543.68 L 153.49 461.72 C 151.76 454.44 146.03 448.78 138.73 447.14 L 92.75 436.81 L 92.75 432.05 L 46.68 432.05 L 46.68 436.81 Z" fill="#064c6c" fill-rule="evenodd" node-id="383" stroke="none" target-height="111.630005" target-width="126.32" target-x="46.68" target-y="432.05"></path><path d="M 78.96 432.72 L 70.59 447.79 L 69.22 432.42 L 78.96 432.72 Z" fill="#03344b" fill-rule="evenodd" node-id="385" stroke="none" target-height="15.369995" target-width="9.739998" target-x="69.22" target-y="432.42"></path><path d="M 69.06 432.05 L 69.89 443.79 C 70.48 452.00 77.10 458.48 85.32 458.88 L 141.89 461.65 C 144.63 461.79 146.96 463.68 147.66 466.32 L 168.07 543.68" fill="none" node-id="387" stroke="#03344b" stroke-linecap="butt" stroke-width="0.5544" target-height="111.630005" target-width="99.01001" target-x="69.06" target-y="432.05"></path><path d="M 100.50 347.68 C 100.50 343.19 96.86 339.55 92.37 339.55 L 47.77 339.55 C 43.53 339.55 40.00 342.81 39.66 347.04 L 32.87 432.69 L 100.50 436.38 L 100.50 347.68 Z" fill="#b7c3d1" fill-rule="evenodd" node-id="389" stroke="none" target-height="96.83002" target-width="67.630005" target-x="32.87" target-y="339.55"></path><path d="M 100.50 423.31 L 100.42 425.73 L 33.61 423.39 L 32.87 432.69 L 100.50 436.38 L 100.50 423.31 Z M 34.95 406.43 L 34.25 415.28 L 100.50 417.59 L 100.50 408.72 L 34.95 406.43 Z M 36.24 390.20 L 35.60 398.31 L 100.50 400.58 L 100.50 392.44 L 36.24 390.20 Z M 37.59 373.24 L 36.88 382.09 L 100.50 384.31 L 100.50 375.43 L 37.59 373.24 Z M 38.87 357.01 L 38.23 365.12 L 100.50 367.30 L 100.50 359.16 L 38.87 357.01 Z M 47.77 339.55 C 43.53 339.55 40.00 342.81 39.66 347.04 L 39.52 348.89 L 100.50 351.02 L 100.50 347.68 C 100.50 343.19 96.86 339.55 92.37 339.55 L 78.87 339.55 C 78.90 339.67 78.91 339.79 78.91 339.92 C 78.91 340.69 78.33 341.32 77.58 341.39 L 77.44 341.40 L 61.17 341.40 C 60.36 341.40 59.69 340.74 59.69 339.92 C 59.69 339.79 59.71 339.67 59.74 339.55 L 47.77 339.55 Z" fill="#e3e9ff" fill-rule="evenodd" node-id="391" stroke="none" target-height="96.83002" target-width="67.630005" target-x="32.87" target-y="339.55"></path><path d="M 86.11 361.42 L 100.35 409.26 L 100.35 381.56 L 86.11 361.42 Z" fill="#080708" fill-opacity="0.245739" fill-rule="evenodd" node-id="393" stroke="none" target-height="47.839996" target-width="14.239998" target-x="86.11" target-y="361.42"></path><path d="M 107.08 365.89 L 115.47 382.28 L 146.25 352.69 C 146.37 352.58 146.44 352.44 146.47 352.28 L 148.28 341.13 C 148.28 341.13 155.04 329.40 156.24 333.68 C 156.69 335.28 152.31 337.20 153.03 342.43 C 153.17 343.40 161.38 337.38 164.83 334.81 C 165.37 334.41 166.12 334.87 166.00 335.53 L 163.73 348.71 C 163.70 348.89 163.61 349.04 163.48 349.15 L 152.29 358.50 L 123.75 397.47 C 119.31 403.52 110.11 402.99 106.40 396.47 L 92.87 372.66 L 107.08 365.89 Z" fill="#e09282" fill-rule="evenodd" node-id="395" stroke="none" target-height="74.119995" target-width="73.24999" target-x="92.87" target-y="329.4"></path><path d="M 101.17 345.02 C 98.84 340.25 93.09 338.26 88.32 340.59 L 85.99 341.73 C 81.22 344.05 79.24 349.81 81.57 354.57 L 95.99 384.14 L 115.59 374.58 L 101.17 345.02 Z" fill="#b7c3d1" fill-rule="nonzero" node-id="397" stroke="none" target-height="45.880005" target-width="36.35" target-x="79.24" target-y="338.26"></path><path d="M 77.08 484.16 L 89.20 569.84 L 82.84 569.76 L 70.72 485.06 L 77.08 484.16 Z" fill="#a7c3ff" fill-rule="evenodd" node-id="399" stroke="none" target-height="85.68002" target-width="18.479996" target-x="70.72" target-y="484.16"></path><path d="M 71.92 484.16 L 59.80 569.84 L 66.16 569.76 L 78.28 485.06 L 71.92 484.16 Z" fill="#c8daff" fill-rule="evenodd" node-id="401" stroke="none" target-height="85.68002" target-width="18.48" target-x="59.8" target-y="484.16"></path><path d="M 112.36 484.16 L 124.48 569.84 L 118.12 569.76 L 106.00 485.06 L 112.36 484.16 Z" fill="#a7c3ff" fill-rule="evenodd" node-id="403" stroke="none" target-height="85.68002" target-width="18.480003" target-x="106" target-y="484.16"></path><path d="M 34.96 484.16 L 22.84 569.84 L 29.20 569.76 L 41.32 485.06 L 34.96 484.16 Z" fill="#c8daff" fill-rule="evenodd" node-id="405" stroke="none" target-height="85.68002" target-width="18.48" target-x="22.84" target-y="484.16"></path><path d="M 117.00 489.20 C 122.53 489.20 127.00 484.73 127.00 479.20 C 127.00 473.68 122.53 469.21 117.00 469.21 L 76.38 469.21 C 70.66 469.21 65.88 464.86 65.34 459.16 L 58.84 390.05 C 58.30 384.35 53.52 380.00 47.80 380.00 L 21.37 380.00 C 14.91 380.00 9.82 385.50 10.32 391.94 L 17.01 478.96 C 17.46 484.74 22.27 489.20 28.07 489.20 L 117.00 489.20 Z" fill="#a7c3ff" fill-rule="evenodd" node-id="407" stroke="none" target-height="109.20001" target-width="117.18" target-x="9.82" target-y="380"></path><path d="M 53.34 381.40 L 60.09 468.88 C 60.54 474.66 65.35 479.12 71.15 479.12 L 126.84 479.12 L 127.00 479.12 L 127.00 478.92 C 127.00 473.42 122.54 468.95 117.03 468.95 L 76.53 468.95 C 70.81 468.95 66.03 464.60 65.49 458.91 L 58.99 390.05 C 58.63 386.29 56.44 383.12 53.34 381.40 Z" fill="#c8daff" fill-rule="evenodd" node-id="409" stroke="none" target-height="97.72" target-width="73.66" target-x="53.34" target-y="381.4"></path><path d="M 324.78 570.80 C 328.12 571.59 338.01 570.70 345.43 571.22 C 348.77 571.45 355.41 570.70 356.55 570.18 C 358.19 569.44 355.64 567.33 353.97 566.66 C 351.25 565.56 346.95 563.81 343.94 562.50 C 339.21 560.45 334.93 559.17 334.41 555.96 C 333.88 552.74 340.05 537.17 340.05 537.17 L 326.70 542.67 C 326.70 542.67 323.85 553.89 322.43 559.54 C 321.01 565.20 321.70 567.16 321.70 567.16 C 321.70 567.16 321.44 570.01 324.78 570.80 Z" fill="#e09282" fill-rule="evenodd" node-id="411" stroke="none" target-height="34.420044" target-width="37.179993" target-x="321.01" target-y="537.17"></path><path d="M 321.16 553.18 L 321.16 572.83 L 339.77 569.23 L 359.98 572.83 C 359.98 572.83 361.14 566.90 357.67 565.41 C 354.19 563.92 348.40 562.83 346.55 561.38 C 344.71 559.92 336.18 550.95 336.18 550.95 L 321.16 553.18 Z" fill="#313131" fill-rule="evenodd" node-id="413" stroke="none" target-height="21.880005" target-width="39.98001" target-x="321.16" target-y="550.95"></path><path d="M 340.05 567.08 C 344.36 567.27 344.79 568.82 348.07 569.14 L 348.45 569.17 C 350.55 569.33 354.47 569.34 360.22 569.19 C 360.33 570.22 360.25 571.43 359.98 572.83 L 358.28 572.86 C 353.89 572.93 350.54 572.92 348.22 572.83 C 344.30 572.67 343.10 571.49 340.05 571.49 C 337.01 571.49 336.09 572.53 331.93 572.83 C 329.43 573.00 326.28 573.02 322.46 572.88 L 321.16 572.83 L 321.16 567.54 L 322.24 567.70 C 326.47 568.31 329.73 568.58 332.01 568.51 C 335.89 568.39 335.75 566.88 340.05 567.08 Z" fill="#cad4d6" fill-rule="evenodd" node-id="415" stroke="none" target-height="6.1400146" target-width="39.169983" target-x="321.16" target-y="566.88"></path><path d="M 329.89 549.89 C 328.82 550.18 328.32 551.40 328.88 552.36 L 329.36 553.16 C 329.61 553.58 330.06 553.85 330.54 553.89 L 339.72 554.54 L 339.29 549.45 C 339.20 548.42 338.20 547.72 337.21 547.98 L 329.89 549.89 Z" fill="#313131" fill-rule="evenodd" node-id="417" stroke="none" target-height="6.8200073" target-width="11.399994" target-x="328.32" target-y="547.72"></path><path d="M 301.95 486.88 C 322.42 486.88 340.88 484.32 340.88 484.32 C 340.88 484.32 337.60 497.75 334.66 509.07 C 331.72 520.38 325.10 545.81 325.10 545.81 L 338.21 545.81 L 367.43 485.39 C 373.18 473.51 365.22 459.56 352.06 458.46 L 309.75 454.94 L 309.75 449.90 L 279.89 449.90 C 279.89 449.90 275.64 486.88 301.95 486.88 Z" fill="#80a4da" fill-rule="evenodd" node-id="419" stroke="none" target-height="95.91" target-width="97.53998" target-x="275.64" target-y="449.9"></path><path d="M 409.33 571.23 C 412.67 572.01 422.56 571.14 429.98 571.66 C 433.32 571.90 438.85 570.77 439.99 570.26 C 441.62 569.53 439.09 567.44 437.43 566.76 C 435.03 565.79 431.37 564.29 428.48 563.04 C 423.76 561.01 420.00 559.11 418.57 555.92 C 417.14 552.74 412.43 538.00 412.43 538.00 L 401.24 544.12 C 401.24 544.12 405.25 552.69 406.25 556.52 C 407.26 560.36 406.25 567.64 406.25 567.64 C 406.25 567.64 405.99 570.45 409.33 571.23 Z" fill="#e09282" fill-rule="evenodd" node-id="421" stroke="none" target-height="34.01001" target-width="40.380005" target-x="401.24" target-y="538"></path><path d="M 405.06 553.55 L 405.06 572.46 C 405.06 572.87 405.39 573.20 405.80 573.20 L 443.27 573.20 C 443.62 573.20 443.92 572.95 443.97 572.60 C 444.15 571.05 444.36 566.98 441.56 565.78 C 438.09 564.29 432.30 563.20 430.45 561.75 C 428.61 560.29 420.08 551.32 420.08 551.32 L 405.06 553.55 Z" fill="#464646" fill-rule="evenodd" node-id="423" stroke="none" target-height="21.880005" target-width="39.299988" target-x="405.06" target-y="551.32"></path><path d="M 405.06 567.87 L 426.19 569.51 L 444.11 569.50 C 444.22 570.44 444.17 571.53 443.95 572.77 L 443.88 573.20 L 405.06 573.20 L 405.06 567.87 Z" fill="#cad4d6" fill-rule="evenodd" node-id="425" stroke="none" target-height="5.330017" target-width="39.160004" target-x="405.06" target-y="567.87"></path><path d="M 413.42 550.26 C 412.35 550.54 411.85 551.77 412.41 552.73 L 412.89 553.53 C 413.14 553.95 413.58 554.22 414.07 554.26 L 423.25 554.91 L 422.81 549.82 C 422.73 548.79 421.73 548.09 420.74 548.35 L 413.42 550.26 Z" fill="#464646" fill-rule="evenodd" node-id="427" stroke="none" target-height="6.8199463" target-width="11.399994" target-x="411.85" target-y="548.09"></path><path d="M 293.77 455.00 C 293.77 455.00 291.00 488.46 316.79 488.07 C 337.25 487.76 381.19 482.81 381.19 482.81 C 381.19 482.81 381.61 490.03 382.00 493.26 C 382.81 499.96 384.12 505.60 385.93 510.17 C 389.96 520.32 401.89 546.71 401.89 546.71 L 415.78 546.71 L 403.76 484.27 L 402.53 477.88 C 400.83 469.08 393.69 462.37 384.80 461.22 L 336.74 455.00 L 336.74 449.96 L 293.44 449.96 L 293.77 455.00 Z" fill="#a0c6ff" fill-rule="evenodd" node-id="429" stroke="none" target-height="96.75003" target-width="124.78" target-x="291" target-y="449.96"></path><path d="M 328.67 453.89 L 320.39 465.57 L 318.35 455.05 L 328.67 453.89 Z" fill="#ffffff" fill-rule="evenodd" node-id="431" stroke="none" target-height="11.679993" target-width="10.320007" target-x="318.35" target-y="453.89"></path><path d="M 318.57 449.96 L 319.35 460.78 C 320.01 470.08 327.95 477.17 337.27 476.78 L 389.38 474.57 C 391.64 474.47 393.66 475.96 394.23 478.15 L 412.04 546.39" fill="none" node-id="433" stroke="#ffffff" stroke-linecap="butt" stroke-width="0.587664" target-height="96.43002" target-width="93.47" target-x="318.57" target-y="449.96"></path><path d="M 244.90 348.99 C 244.90 348.99 248.85 345.06 249.77 343.77 C 251.34 341.56 250.84 340.66 249.77 341.19 C 247.22 342.44 243.89 345.36 243.89 345.36 L 244.90 348.99 Z" fill="#e09282" fill-rule="evenodd" node-id="435" stroke="none" target-height="8.329987" target-width="7.449997" target-x="243.89" target-y="340.66"></path><path d="M 277.07 374.76 L 255.31 390.71 C 255.31 390.71 245.12 364.50 243.70 354.21 C 243.50 352.76 245.56 350.74 245.65 349.10 C 245.82 346.13 243.16 330.19 242.33 330.19 C 240.69 330.19 241.47 340.41 241.47 340.41 C 241.47 340.41 232.57 341.26 232.57 342.50 C 232.57 351.74 234.69 354.21 234.65 354.81 C 234.49 357.24 238.80 382.94 241.79 400.35 C 243.04 407.64 251.58 410.98 257.46 406.50 L 285.05 385.46 L 277.07 374.76 Z" fill="#e09282" fill-rule="evenodd" node-id="437" stroke="none" target-height="80.79001" target-width="52.47998" target-x="232.57" target-y="330.19"></path><path d="M 278.69 369.11 C 282.42 365.82 288.09 366.11 291.47 369.76 L 293.00 371.41 C 296.84 375.56 296.05 382.15 291.34 385.28 L 257.25 407.90 C 251.26 411.88 243.16 408.41 241.91 401.33 L 234.52 359.49 L 245.48 357.36 L 256.20 388.92 L 278.69 369.11 Z" fill="#265388" fill-rule="evenodd" node-id="439" stroke="none" target-height="54.52002" target-width="62.319992" target-x="234.52" target-y="357.36"></path><path d="M 278.05 376.69 L 278.79 393.58 L 282.88 390.93 L 278.05 376.69 Z" fill="#080708" fill-opacity="0.223011" fill-rule="evenodd" node-id="441" stroke="none" target-height="16.889984" target-width="4.830017" target-x="278.05" target-y="376.69"></path><path d="M 277.95 375.71 C 276.70 370.83 279.89 365.93 284.87 365.21 C 291.06 364.31 299.03 363.30 304.43 363.12 C 312.18 362.87 321.81 364.12 325.75 364.70 C 326.89 364.86 327.85 365.58 328.33 366.62 C 330.80 371.89 338.29 388.45 338.71 395.59 C 339.11 402.13 333.14 409.42 333.14 416.13 C 333.14 422.83 337.54 454.41 337.54 454.41 L 276.74 457.49 C 276.20 457.51 275.79 457.00 275.94 456.49 L 287.94 414.87 L 277.95 375.71 Z" fill="#e3e9ff" fill-rule="evenodd" node-id="443" stroke="none" target-height="94.640015" target-width="63.319977" target-x="275.79" target-y="362.87"></path><path d="M 314.80 363.33 C 314.66 363.69 314.33 363.96 313.93 364.02 C 310.44 364.52 307.26 364.82 304.39 364.92 C 301.65 365.00 299.18 364.90 297.00 364.61 C 296.53 364.55 296.16 364.20 296.06 363.74 L 297.48 363.60 C 300.25 363.33 302.71 363.16 304.86 363.09 C 307.95 362.99 311.26 363.07 314.80 363.33 Z" fill="#265388" fill-rule="evenodd" node-id="445" stroke="none" target-height="2.0100098" target-width="18.73999" target-x="296.06" target-y="362.99"></path><path d="M 318.46 380.92 C 320.20 389.91 333.21 413.49 333.21 413.49 L 335.80 406.04 L 322.09 377.97 C 322.09 377.97 316.72 371.92 318.46 380.92 Z" fill="#080708" fill-opacity="0.223011" fill-rule="evenodd" node-id="447" stroke="none" target-height="41.569977" target-width="19.079987" target-x="316.72" target-y="371.92"></path><path d="M 333.77 373.75 L 349.22 405.05 L 368.08 376.81 C 368.14 376.71 368.18 376.61 368.20 376.50 L 369.42 365.83 C 369.42 365.83 373.77 355.35 375.05 358.57 C 375.60 359.98 374.35 362.01 375.05 367.00 C 375.17 367.92 382.64 362.87 385.85 360.66 C 386.37 360.30 387.07 360.76 386.95 361.38 L 384.69 373.04 C 384.66 373.20 384.57 373.34 384.45 373.45 L 373.77 382.37 L 359.32 417.36 C 356.17 424.99 345.61 425.62 341.58 418.41 L 320.22 380.21 L 333.77 373.75 Z" fill="#e09282" fill-rule="evenodd" node-id="449" stroke="none" target-height="70.26999" target-width="66.850006" target-x="320.22" target-y="355.35"></path><path d="M 334.75 370.14 C 332.57 365.47 326.97 363.51 322.35 365.81 L 321.94 366.02 C 317.22 368.37 315.45 374.20 318.06 378.77 L 341.34 419.52 C 345.37 426.58 355.70 426.12 359.08 418.73 L 374.14 385.83 L 365.21 380.51 L 350.03 402.94 L 334.75 370.14 Z" fill="#265388" fill-rule="evenodd" node-id="451" stroke="none" target-height="63.069977" target-width="58.690002" target-x="315.45" target-y="363.51"></path><path d="M 321.08 340.40 L 321.08 346.87 C 321.08 346.87 323.77 345.47 323.77 344.92 C 323.77 344.37 321.08 340.40 321.08 340.40 Z" fill="#b9726b" fill-rule="evenodd" node-id="453" stroke="none" target-height="6.470001" target-width="2.6900024" target-x="321.08" target-y="340.4"></path><path d="M 298.27 363.46 L 312.38 363.46 L 311.04 356.84 C 311.04 356.84 316.84 357.46 319.48 353.69 C 322.12 349.93 321.75 330.30 321.75 330.30 L 298.27 330.30 L 298.27 363.46 Z" fill="#e09282" fill-rule="evenodd" node-id="455" stroke="none" target-height="33.160004" target-width="23.850006" target-x="298.27" target-y="330.3"></path><path d="M 311.04 356.84 L 308.10 356.42 L 312.38 363.46 L 311.04 356.84 Z" fill="#b9726b" fill-rule="evenodd" node-id="457" stroke="none" target-height="7.039978" target-width="4.279999" target-x="308.1" target-y="356.42"></path><path d="M 310.40 362.50 C 310.40 359.93 309.78 356.42 309.21 341.51 C 309.09 338.17 312.77 337.51 312.77 337.51 L 313.47 344.42 C 313.50 344.66 313.70 344.84 313.94 344.84 C 314.14 344.84 314.32 344.71 314.39 344.51 L 316.55 337.59 C 317.06 335.97 318.38 334.75 319.82 333.85 C 321.32 332.92 323.05 331.34 323.61 328.86 C 324.68 324.18 321.39 319.34 317.36 320.07 C 306.71 309.50 285.30 318.28 285.26 331.34 C 285.24 341.71 283.54 359.55 284.49 363.31 C 285.44 367.07 310.40 367.38 310.40 362.50 Z" fill="#321111" fill-rule="evenodd" node-id="459" stroke="none" target-height="57.880005" target-width="41.139984" target-x="283.54" target-y="309.5"></path><path d="M 312.21 318.85 C 310.01 316.75 306.39 314.58 301.84 315.40 C 300.39 315.66 298.35 316.27 297.23 316.85 C 304.14 317.31 308.51 318.99 310.36 321.90 C 313.15 326.30 313.35 329.66 311.83 337.77 L 312.96 337.45 C 316.57 331.34 317.79 324.14 312.21 318.85 Z" fill="#a0c6ff" fill-rule="evenodd" node-id="461" stroke="none" target-height="23.190002" target-width="20.559998" target-x="297.23" target-y="314.58"></path><path d="M 321.08 487.16 L 333.20 572.84 L 326.84 572.76 L 314.72 488.06 L 321.08 487.16 Z" fill="#a7c3ff" fill-rule="evenodd" node-id="463" stroke="none" target-height="85.68002" target-width="18.480011" target-x="314.72" target-y="487.16"></path><path d="M 315.92 487.16 L 303.80 572.84 L 310.16 572.76 L 322.28 488.06 L 315.92 487.16 Z" fill="#c8daff" fill-rule="evenodd" node-id="465" stroke="none" target-height="85.68002" target-width="18.480011" target-x="303.8" target-y="487.16"></path><path d="M 356.36 487.16 L 368.48 572.84 L 362.12 572.76 L 350.00 488.06 L 356.36 487.16 Z" fill="#a7c3ff" fill-rule="evenodd" node-id="467" stroke="none" target-height="85.68002" target-width="18.480011" target-x="350" target-y="487.16"></path><path d="M 278.96 487.16 L 266.84 572.84 L 273.20 572.76 L 285.32 488.06 L 278.96 487.16 Z" fill="#c8daff" fill-rule="evenodd" node-id="469" stroke="none" target-height="85.68002" target-width="18.480011" target-x="266.84" target-y="487.16"></path><path d="M 361.00 492.20 C 366.52 492.20 371.00 487.73 371.00 482.20 C 371.00 476.68 366.52 472.21 361.00 472.21 L 320.38 472.21 C 314.66 472.21 309.88 467.86 309.34 462.16 L 302.84 393.05 C 302.30 387.35 297.52 383.00 291.80 383.00 L 265.37 383.00 C 258.92 383.00 253.82 388.50 254.32 394.94 L 261.01 481.96 C 261.46 487.74 266.27 492.20 272.07 492.20 L 361.00 492.20 Z" fill="#a7c3ff" fill-rule="evenodd" node-id="471" stroke="none" target-height="109.20001" target-width="117.17999" target-x="253.82" target-y="383"></path><path d="M 297.34 384.40 L 304.09 471.88 C 304.54 477.66 309.35 482.12 315.15 482.12 L 370.84 482.12 L 371.00 482.12 L 371.00 481.92 C 371.00 476.42 366.54 471.95 361.03 471.95 L 320.53 471.95 C 314.81 471.95 310.03 467.60 309.49 461.91 L 302.99 393.05 C 302.63 389.29 300.44 386.12 297.34 384.40 Z" fill="#c8daff" fill-rule="evenodd" node-id="473" stroke="none" target-height="97.72" target-width="73.66" target-x="297.34" target-y="384.4"></path><path d="M 494.10 57.58 L 494.10 56.56 C 481.89 53.22 472.93 42.05 472.93 28.79 C 472.93 15.53 481.89 4.36 494.10 1.02 L 494.10 0.00 L 501.72 0.00 C 517.62 0.00 530.50 12.89 530.50 28.79 C 530.50 44.53 517.87 57.32 502.19 57.57 L 501.72 57.58 L 494.10 57.58 Z" fill="#a7c3ff" fill-rule="evenodd" node-id="475" stroke="none" target-height="57.58" target-width="57.570007" target-x="472.93" target-y="0"></path><path d="M 495.79 57.58 C 511.69 57.58 524.58 44.69 524.58 28.79 C 524.58 12.89 511.69 0.00 495.79 0.00 C 479.89 0.00 467.00 12.89 467.00 28.79 C 467.00 44.69 479.89 57.58 495.79 57.58 Z" fill="#c8daff" fill-rule="evenodd" node-id="477" stroke="none" target-height="57.58" target-width="57.580017" target-x="467" target-y="0"></path><path d="M 495.57 54.61 C 509.83 54.61 521.39 43.05 521.39 28.79 C 521.39 14.53 509.83 2.96 495.57 2.96 C 481.31 2.96 469.74 14.53 469.74 28.79 C 469.74 43.05 481.31 54.61 495.57 54.61 Z" fill="#a7c3ff" fill-rule="evenodd" node-id="479" stroke="none" target-height="51.65" target-width="51.650024" target-x="469.74" target-y="2.96"></path><path d="M 497.70 3.13 L 498.11 3.09 C 511.18 4.36 521.39 15.38 521.39 28.79 C 521.39 42.19 511.18 53.21 498.11 54.49 C 485.04 53.21 474.82 42.19 474.82 28.79 C 474.82 15.52 484.82 4.60 497.70 3.13 L 498.11 3.09 L 497.70 3.13 Z" fill="#eaefff" fill-rule="nonzero" node-id="481" stroke="none" target-height="51.4" target-width="46.570007" target-x="474.82" target-y="3.09"></path><path d="M 497.27 7.49 L 497.27 30.48 C 497.27 30.83 497.55 31.12 497.90 31.12 C 498.26 31.12 498.54 30.83 498.54 30.48 L 498.54 7.49 C 498.54 7.14 498.26 6.85 497.90 6.85 C 497.55 6.85 497.27 7.14 497.27 7.49 Z" fill="#a7c3ff" fill-rule="evenodd" node-id="483" stroke="none" target-height="24.27" target-width="1.2700195" target-x="497.27" target-y="6.85"></path><path d="M 498.54 29.64 L 485.35 19.66 C 484.88 19.30 484.22 19.40 483.87 19.86 C 483.51 20.33 483.61 20.99 484.07 21.34 L 497.27 31.33 C 497.73 31.68 498.40 31.59 498.75 31.12 C 499.10 30.66 499.01 29.99 498.54 29.64 Z" fill="#a7c3ff" fill-rule="evenodd" node-id="485" stroke="none" target-height="12.380001" target-width="15.589996" target-x="483.51" target-y="19.3"></path><path d="M 380.00 200.68 C 380.00 199.75 379.25 199.00 378.32 199.00 L 122.12 199.00 C 121.19 199.00 120.44 199.75 120.44 200.68 L 120.44 209.92 C 120.44 210.85 121.19 211.60 122.12 211.60 L 378.32 211.60 C 379.25 211.60 380.00 210.85 380.00 209.92 L 380.00 200.68 Z" fill="#9ab9fa" fill-rule="evenodd" node-id="487" stroke="none" target-height="12.600006" target-width="259.56" target-x="120.44" target-y="199"></path><path d="M 301.40 211.57 L 323.63 243.13 L 323.63 211.57 L 301.40 211.57 Z" fill="#9ab9fa" fill-rule="evenodd" node-id="489" stroke="none" target-height="31.559998" target-width="22.230011" target-x="301.4" target-y="211.57"></path><path d="M 298.52 207.40 L 285.92 207.40 L 311.12 243.52 L 323.72 243.52 L 298.52 207.40 Z" fill="#c8daff" fill-rule="evenodd" node-id="491" stroke="none" target-height="36.12001" target-width="37.799988" target-x="285.92" target-y="207.4"></path><path d="M 157.76 211.57 L 179.99 243.13 L 179.99 211.57 L 157.76 211.57 Z" fill="#9ab9fa" fill-rule="evenodd" node-id="493" stroke="none" target-height="31.559998" target-width="22.230011" target-x="157.76" target-y="211.57"></path><path d="M 154.88 207.40 L 142.28 207.40 L 167.48 243.52 L 180.08 243.52 L 154.88 207.40 Z" fill="#c8daff" fill-rule="evenodd" node-id="495" stroke="none" target-height="36.12001" target-width="37.800003" target-x="142.28" target-y="207.4"></path><path d="M 338.00 200.68 C 338.00 199.75 337.25 199.00 336.32 199.00 L 105.32 199.00 C 104.39 199.00 103.64 199.75 103.64 200.68 L 103.64 209.92 C 103.64 210.85 104.39 211.60 105.32 211.60 L 336.32 211.60 C 337.25 211.60 338.00 210.85 338.00 209.92 L 338.00 200.68 Z" fill="#c8daff" fill-rule="evenodd" node-id="497" stroke="none" target-height="12.600006" target-width="234.36" target-x="103.64" target-y="199"></path><path d="M 211.17 172.67 C 211.09 171.50 212.01 170.51 213.18 170.51 L 245.14 170.51 C 246.31 170.51 247.23 171.50 247.15 172.67 L 245.42 196.86 C 245.35 197.92 244.47 198.74 243.41 198.74 L 214.91 198.74 C 213.85 198.74 212.97 197.92 212.90 196.86 L 211.17 172.67 Z" fill="#f5ac00" fill-rule="nonzero" node-id="499" stroke="none" target-height="28.230011" target-width="36.14" target-x="211.09" target-y="170.51"></path><path d="M 218.48 172.99 C 218.48 172.99 214.28 164.87 212.42 157.94 C 210.56 151.01 210.39 142.89 210.39 142.89 C 210.39 142.89 215.87 148.62 220.79 156.74 C 225.72 164.86 228.62 172.99 228.62 172.99 L 218.48 172.99 Z" fill="#4ed266" fill-rule="nonzero" node-id="501" stroke="none" target-height="30.100006" target-width="18.229996" target-x="210.39" target-y="142.89"></path><path d="M 240.69 172.99 C 240.69 172.99 244.89 164.87 246.75 157.94 C 248.61 151.01 248.78 142.89 248.78 142.89 C 248.78 142.89 243.30 148.62 238.38 156.74 C 233.46 164.86 230.55 172.99 230.55 172.99 L 240.69 172.99 Z" fill="#40b955" fill-rule="evenodd" node-id="503" stroke="none" target-height="30.100006" target-width="18.229996" target-x="230.55" target-y="142.89"></path><path d="M 236.21 172.99 C 236.21 172.99 239.47 161.50 239.71 150.02 C 239.95 138.53 237.16 127.05 237.16 127.05 C 237.16 127.05 231.37 138.53 228.59 150.02 C 225.82 161.50 226.07 172.99 226.07 172.99 L 236.21 172.99 Z" fill="#4ed266" fill-rule="nonzero" node-id="505" stroke="none" target-height="45.940002" target-width="14.12999" target-x="225.82" target-y="127.05"></path><path d="M 224.53 172.99 C 224.53 172.99 221.27 161.50 221.03 150.02 C 220.79 138.53 223.57 127.05 223.57 127.05 C 223.57 127.05 229.37 138.53 232.14 150.02 C 234.92 161.50 234.67 172.99 234.67 172.99 L 224.53 172.99 Z" fill="#40b955" fill-rule="evenodd" node-id="507" stroke="none" target-height="45.940002" target-width="14.130005" target-x="220.79" target-y="127.05"></path><path d="M 209.00 168.50 L 249.32 168.50 L 249.32 176.56 L 209.00 176.56 Z" fill="#ffbf29" fill-rule="nonzero" node-id="509" stroke="none" target-height="8.059998" target-width="40.320007" target-x="209" target-y="168.5"></path><path d="M 319.62 171.73 L 327.06 198.66 L 321.02 198.66 L 314.40 174.69 L 319.62 171.73 Z" fill="#f5ac00" fill-rule="nonzero" node-id="511" stroke="none" target-height="26.930008" target-width="12.660004" target-x="314.4" target-y="171.73"></path><path d="M 293.80 157.00 L 323.25 157.00 L 328.24 159.52 L 318.16 199.00 L 282.88 199.00 L 293.80 157.00 Z" fill="#f5ac00" fill-rule="nonzero" node-id="513" stroke="none" target-height="42" target-width="45.359985" target-x="282.88" target-y="157"></path><path d="M 287.92 157.00 L 323.20 157.00 L 312.28 199.00 L 277.00 199.00 L 287.92 157.00 Z" fill="#ffbf29" fill-rule="nonzero" node-id="515" stroke="none" target-height="42" target-width="46.200012" target-x="277" target-y="157"></path><path d="M 291.89 161.20 L 317.32 161.20 L 308.31 194.80 L 282.88 194.80 L 291.89 161.20 Z" fill="#eff3ff" fill-rule="nonzero" node-id="517" stroke="none" target-height="33.600006" target-width="34.440002" target-x="282.88" target-y="161.2"></path><path d="M 291.89 161.20 L 298.00 161.20 L 288.99 194.80 L 282.88 194.80 L 291.89 161.20 Z" fill="#f5ac00" fill-rule="nonzero" node-id="519" stroke="none" target-height="33.600006" target-width="15.119995" target-x="282.88" target-y="161.2"></path></svg>