<?xml version="1.0" standalone="no"?><!DOCTYPE svg PUBLIC "-//W3C//DTD SVG 1.1//EN" "http://www.w3.org/Graphics/SVG/1.1/DTD/svg11.dtd"><svg height="1200" node-id="1" sillyvg="true" template-height="1200" template-width="1200" version="1.1" viewBox="0 0 1200 1200" width="1200" xmlns="http://www.w3.org/2000/svg" xmlns:xlink="http://www.w3.org/1999/xlink"><defs node-id="63"><linearGradient gradientUnits="userSpaceOnUse" id="SVGID_1_" node-id="7" spreadMethod="pad" x1="840.5522" x2="901.9003" y1="-505.4218" y2="-649.362"><stop offset="0.0000004984026" stop-color="#ffdbd4"></stop><stop offset="1" stop-color="#ffd1bf"></stop></linearGradient><linearGradient gradientUnits="userSpaceOnUse" id="SVGID_00000122710543277124323950000002376759172828351674_" node-id="11" spreadMethod="pad" x1="888.8553" x2="886.3163" y1="-638.8333" y2="-506.9331"><stop offset="0.000000258786" stop-color="#fac1b6"></stop><stop offset="1" stop-color="#ffded1"></stop></linearGradient><linearGradient gradientUnits="userSpaceOnUse" id="SVGID_00000150819233955661649090000015181116331848548280_" node-id="15" spreadMethod="pad" x1="888.8553" x2="886.3163" y1="-638.8252" y2="-506.925"><stop offset="0.000000258786" stop-color="#fac1b6"></stop><stop offset="1" stop-color="#ffded1"></stop></linearGradient><linearGradient gradientTransform="matrix(-1 0 0 -1 1717.3657 1200)" gradientUnits="userSpaceOnUse" id="SVGID_00000067213324861750592830000004299677382722750635_" node-id="20" spreadMethod="pad" x1="1354.3258" x2="1415.674" y1="506.4217" y2="650.3619"><stop offset="0.0000004984026" stop-color="#ffdbd4"></stop><stop offset="1" stop-color="#ffd1bf"></stop></linearGradient><linearGradient gradientTransform="matrix(-1 0 0 -1 1717.3657 1200)" gradientUnits="userSpaceOnUse" id="SVGID_00000039120175782759726610000004139843427637524641_" node-id="24" spreadMethod="pad" x1="1402.631" x2="1400.092" y1="639.8333" y2="507.933"><stop offset="0.000000258786" stop-color="#fac1b6"></stop><stop offset="1" stop-color="#ffded1"></stop></linearGradient><linearGradient gradientUnits="userSpaceOnUse" id="SVGID_00000024682956890412125300000010654202941262815666_" node-id="28" spreadMethod="pad" x1="600.261" x2="602.2062" y1="-239.2306" y2="-372.7192"><stop offset="0.000000992013" stop-color="#ffdbd4"></stop><stop offset="1" stop-color="#ffbfaa"></stop></linearGradient><linearGradient gradientUnits="userSpaceOnUse" id="SVGID_00000070094442856567386610000002183455789871687349_" node-id="32" spreadMethod="pad" x1="607.7481" x2="595.4963" y1="-956.0482" y2="-319.5567"><stop offset="0.0000004984026" stop-color="#ffdbd4"></stop><stop offset="1" stop-color="#ffd1bf"></stop></linearGradient><linearGradient gradientUnits="userSpaceOnUse" id="SVGID_00000062159908376854372070000001409514727591272365_" node-id="53" spreadMethod="pad" x1="599.9039" x2="604.7284" y1="7.2497" y2="-323.8349"><stop offset="0.0000003977636" stop-color="#ebebeb"></stop><stop offset="1" stop-color="#f5f5f5"></stop></linearGradient></defs><path d="M 840.60 357.60 L 355.40 357.60 C 334.80 357.60 318.20 388.50 318.20 426.70 L 318.20 854.90 C 318.20 888.40 339.80 928.50 357.60 934.40 L 380.40 881.40 C 380.40 881.40 400.10 939.30 407.40 941.30 C 538.50 977.80 672.00 976.50 802.90 937.20 C 806.60 936.10 809.20 932.90 809.70 929.10 L 815.60 878.30 L 838.70 925.70 L 847.10 922.90 C 864.90 917.00 877.80 888.40 877.80 854.90 L 877.80 426.70 C 877.80 388.50 861.20 357.60 840.60 357.60 Z" fill="#32333f" fill-rule="evenodd" node-id="116" stroke="none" target-height="620.19995" target-width="559.6" target-x="318.2" target-y="357.6"></path><g node-id="187"><path d="M 831.70 556.50 C 831.70 556.50 918.40 510.10 940.40 551.90 C 962.40 593.80 908.90 734.20 831.70 704.80 L 831.70 556.50 Z" fill="url(#SVGID_1_)" fill-rule="evenodd" group-id="1" node-id="120" stroke="none" target-height="224.1" target-width="130.70001" target-x="831.7" target-y="510.1"></path><path d="M 887.40 560.20 C 887.40 560.20 933.20 547.60 930.30 582.70 C 927.40 617.80 906.90 689.20 844.30 691.70 L 887.40 560.20 Z" fill="url(#SVGID_00000122710543277124323950000002376759172828351674_)" fill-rule="evenodd" group-id="1" node-id="122" stroke="none" target-height="144.10004" target-width="88.900024" target-x="844.3" target-y="547.6"></path><path d="M 887.40 560.20 C 887.40 560.20 933.20 547.60 930.30 582.70 C 927.40 617.80 906.90 689.20 844.30 691.70 L 887.40 560.20 Z" fill="url(#SVGID_00000150819233955661649090000015181116331848548280_)" fill-rule="evenodd" group-id="1" node-id="124" stroke="none" target-height="144.10004" target-width="88.900024" target-x="844.3" target-y="547.6"></path></g><g node-id="188"><path d="M 371.90 704.80 C 294.70 734.20 241.20 593.80 263.20 551.90 C 285.20 510.00 371.90 556.50 371.90 556.50 L 371.90 704.80 Z" fill="url(#SVGID_00000067213324861750592830000004299677382722750635_)" fill-rule="evenodd" group-id="2" node-id="129" stroke="none" target-height="224.20001" target-width="130.7" target-x="241.2" target-y="510"></path><path d="M 316.20 560.20 C 316.20 560.20 270.40 547.60 273.30 582.70 C 276.20 617.80 296.70 689.20 359.30 691.70 L 316.20 560.20 Z" fill="url(#SVGID_00000039120175782759726610000004139843427637524641_)" fill-rule="evenodd" group-id="2" node-id="131" stroke="none" target-height="144.10004" target-width="88.899994" target-x="270.4" target-y="547.6"></path></g><path d="M 697.30 825.20 L 601.10 826.60 L 504.90 825.20 C 504.90 825.20 498.90 881.20 488.10 922.80 C 482.60 944.20 498.70 965.00 520.70 965.00 L 598.40 965.00 L 603.70 965.00 L 678.10 965.00 C 701.70 965.00 719.00 942.80 713.30 919.90 C 703.10 878.60 697.30 825.20 697.30 825.20 Z" fill="url(#SVGID_00000024682956890412125300000010654202941262815666_)" fill-rule="evenodd" node-id="134" stroke="none" target-height="139.79999" target-width="236.4" target-x="482.6" target-y="825.2"></path><path d="M 863.90 615.00 C 863.90 827.20 705.50 881.40 600.90 881.40 C 498.80 881.40 337.90 827.20 337.90 615.00 C 337.90 402.80 349.00 230.80 600.90 230.80 C 825.50 230.90 863.90 402.90 863.90 615.00 Z" fill="url(#SVGID_00000070094442856567386610000002183455789871687349_)" fill-rule="evenodd" node-id="136" stroke="none" target-height="650.60004" target-width="526" target-x="337.9" target-y="230.8"></path><path d="M 620.80 716.40 C 620.80 722.90 610.60 728.20 598.00 728.20 C 585.40 728.20 575.20 722.90 575.20 716.40 C 575.20 709.90 585.40 696.50 598.00 696.50 C 610.60 696.50 620.80 709.90 620.80 716.40 Z" fill="#ffcbbb" fill-rule="nonzero" node-id="138" stroke="none" target-height="31.700012" target-width="45.599976" target-x="575.2" target-y="696.5"></path><path d="M 484.30 557.10 C 473.30 557.10 463.60 564.40 457.30 575.80 L 462.70 581.30 L 454.70 581.30 C 451.80 588.40 450.10 596.70 450.10 605.50 C 450.10 632.20 465.40 653.90 484.30 653.90 C 503.20 653.90 518.50 632.20 518.50 605.50 C 518.50 578.70 503.20 557.10 484.30 557.10 Z" fill="#3a302e" fill-rule="evenodd" group-id="3,6" node-id="144" stroke="none" target-height="96.80005" target-width="68.399994" target-x="450.1" target-y="557.1"></path><path d="M 503.40 596.40 C 503.40 604.24 499.86 610.60 495.50 610.60 C 491.14 610.60 487.60 604.24 487.60 596.40 C 487.60 588.56 491.14 582.20 495.50 582.20 C 499.86 582.20 503.40 588.56 503.40 596.40 Z" fill="#fff9f8" fill-rule="evenodd" group-id="3,6" node-id="146" stroke="none" target-height="28.399963" target-width="15.799988" target-x="487.6" target-y="582.2"></path><path d="M 717.40 557.10 C 728.40 557.10 738.10 564.40 744.40 575.80 L 739.00 581.30 L 748.80 586.30 C 751.70 593.40 751.60 596.70 751.60 605.50 C 751.60 632.20 736.30 653.90 717.40 653.90 C 698.50 653.90 683.20 632.20 683.20 605.50 C 683.20 578.70 698.50 557.10 717.40 557.10 Z" fill="#3a302e" fill-rule="evenodd" group-id="3,7" node-id="151" stroke="none" target-height="96.80005" target-width="68.5" target-x="683.2" target-y="557.1"></path><path d="M 709.40 596.40 C 709.40 604.24 705.86 610.60 701.50 610.60 C 697.14 610.60 693.60 604.24 693.60 596.40 C 693.60 588.56 697.14 582.20 701.50 582.20 C 705.86 582.20 709.40 588.56 709.40 596.40 Z" fill="#fff9f8" fill-rule="evenodd" group-id="3,7" node-id="153" stroke="none" target-height="28.399963" target-width="15.800049" target-x="693.6" target-y="582.2"></path><path d="M 502.00 713.20 C 502.00 723.80 483.29 732.40 460.20 732.40 C 437.11 732.40 418.40 723.80 418.40 713.20 C 418.40 702.60 437.11 694.00 460.20 694.00 C 483.29 694.00 502.00 702.60 502.00 713.20 Z" fill="#ffc2c2" fill-rule="evenodd" node-id="157" stroke="none" target-height="38.400024" target-width="83.600006" target-x="418.4" target-y="694"></path><path d="M 790.80 713.20 C 790.80 723.80 772.09 732.40 749.00 732.40 C 725.91 732.40 707.20 723.80 707.20 713.20 C 707.20 702.60 725.91 694.00 749.00 694.00 C 772.09 694.00 790.80 702.60 790.80 713.20 Z" fill="#ffc2c2" fill-rule="evenodd" node-id="159" stroke="none" target-height="38.400024" target-width="83.599976" target-x="707.2" target-y="694"></path><path d="M 602.90 789.00 C 581.90 789.00 567.90 781.30 567.00 780.90 C 564.60 779.60 563.70 776.50 565.10 774.10 C 566.40 771.70 569.50 770.80 571.90 772.20 C 573.10 772.90 600.40 787.50 635.60 772.00 C 638.10 770.90 641.10 772.00 642.20 774.60 C 643.30 777.10 642.20 780.10 639.60 781.20 C 626.20 787.00 613.60 789.00 602.90 789.00 Z" fill="#ffb094" fill-rule="nonzero" group-id="4" node-id="163" stroke="none" target-height="18.200012" target-width="79.599976" target-x="563.7" target-y="770.8"></path><path d="M 583.50 796.30 C 592.30 797.50 607.90 798.90 622.20 796.80 C 624.20 796.50 625.20 799.10 623.50 800.20 C 618.70 803.40 611.80 806.90 604.10 807.30 C 595.70 807.80 587.40 803.30 582.20 799.70 C 580.50 798.60 581.50 796.00 583.50 796.30 Z" fill="#fcc9bb" fill-rule="evenodd" node-id="166" stroke="none" target-height="11.799988" target-width="44.700012" target-x="580.5" target-y="796"></path><path d="M 320.70 324.20 C 320.70 324.20 393.80 143.30 598.40 215.20 C 598.40 215.20 752.10 125.00 856.70 317.90 C 957.50 503.80 784.70 469.40 784.70 469.40 C 784.70 469.40 630.20 431.40 595.40 352.40 C 595.40 352.40 482.60 522.10 380.00 502.20 C 277.50 482.10 320.70 324.20 320.70 324.20 Z" fill="#3d3f47" fill-rule="evenodd" node-id="168" stroke="none" target-height="397.09998" target-width="680" target-x="277.5" target-y="125"></path><path d="M 436.70 405.90 L 314.00 360.70 C 314.00 360.70 256.50 580.50 287.90 838.50 C 287.90 838.50 300.40 848.50 326.90 858.10 L 347.20 796.30 L 351.20 865.60 C 365.10 869.10 381.30 872.20 400.10 874.00 C 400.00 873.90 342.30 638.20 436.70 405.90 Z" fill="#3d3f47" fill-rule="evenodd" node-id="170" stroke="none" target-height="513.3" target-width="180.20001" target-x="256.5" target-y="360.7"></path><path d="M 762.60 405.90 L 877.90 363.40 C 877.90 363.40 957.70 558.00 911.40 838.50 C 911.40 838.50 898.90 848.50 872.40 858.10 L 852.10 796.30 L 848.10 865.60 C 834.20 869.10 817.90 872.20 799.20 874.00 C 799.20 873.90 857.00 638.20 762.60 405.90 Z" fill="#3d3f47" fill-rule="evenodd" node-id="172" stroke="none" target-height="510.6" target-width="195.10004" target-x="762.6" target-y="363.4"></path><path d="M 497.50 876.60 C 453.50 900.30 384.50 931.00 363.10 936.70 C 291.10 955.80 220.00 1010.30 171.00 1200.00 L 1029.00 1200.00 C 1029.00 1200.00 966.40 996.40 854.20 940.70 C 821.90 926.00 742.00 902.60 704.60 876.60 C 708.70 904.60 704.00 926.00 608.60 927.40 C 511.30 928.80 494.80 896.00 497.50 876.60 Z" fill="url(#SVGID_00000062159908376854372070000001409514727591272365_)" fill-rule="evenodd" node-id="174" stroke="none" target-height="323.40002" target-width="858" target-x="171" target-y="876.6"></path><path d="M 820.50 1066.60 C 820.50 1066.60 886.50 1139.00 898.50 1200.00 L 852.00 1200.00 C 852.00 1200.00 857.40 1136.60 820.50 1066.60 Z" fill="#e2e2e2" fill-rule="evenodd" group-id="5" node-id="178" stroke="none" target-height="133.40002" target-width="78" target-x="820.5" target-y="1066.6"></path><path d="M 379.50 1066.60 C 379.50 1066.60 313.50 1139.00 301.50 1200.00 L 348.00 1200.00 C 348.00 1200.00 342.60 1136.60 379.50 1066.60 Z" fill="#e2e2e2" fill-rule="evenodd" group-id="5" node-id="180" stroke="none" target-height="133.40002" target-width="78" target-x="301.5" target-y="1066.6"></path><path d="M 413.70 529.40 C 420.80 517.40 447.00 488.60 526.40 517.20 C 529.90 518.40 532.20 521.80 532.20 525.60 L 532.20 529.80 C 532.20 536.00 526.20 540.20 520.60 538.10 C 501.00 530.50 459.30 518.60 416.10 532.50 C 414.30 533.10 412.80 531.00 413.70 529.40 Z" fill="#3a302e" fill-rule="evenodd" node-id="183" stroke="none" target-height="51.600006" target-width="119.400024" target-x="412.8" target-y="488.6"></path><path d="M 773.40 529.40 C 766.30 517.40 740.10 488.60 660.70 517.20 C 657.20 518.40 654.90 521.80 654.90 525.60 L 654.90 529.80 C 654.90 536.00 660.90 540.20 666.50 538.10 C 686.10 530.50 727.80 518.60 771.00 532.50 C 772.80 533.10 774.30 531.00 773.40 529.40 Z" fill="#3a302e" fill-rule="evenodd" node-id="185" stroke="none" target-height="51.600006" target-width="119.39996" target-x="654.9" target-y="488.6"></path></svg>