<?xml version="1.0" standalone="no"?><!DOCTYPE svg PUBLIC "-//W3C//DTD SVG 1.1//EN" "http://www.w3.org/Graphics/SVG/1.1/DTD/svg11.dtd"><svg t="1688712764348" class="icon" viewBox="0 0 1024 1024" version="1.1" xmlns="http://www.w3.org/2000/svg" p-id="7564" xmlns:xlink="http://www.w3.org/1999/xlink" width="500" height="500"><path d="M1016.832 956.416c-9.216-36.352-21.504-70.656-37.376-101.888-9.728-19.968-33.792-28.16-53.76-18.944-19.968 9.728-28.16 33.792-18.944 53.76 13.824 28.16 24.064 56.832 31.232 86.016 4.608 17.92 20.992 30.72 38.912 30.72 3.072 0 6.144-0.512 9.216-1.024 10.752-2.048 19.968-8.192 25.6-17.408 6.144-9.216 8.192-20.48 5.12-31.232zM816.128 659.968c-55.808-39.936-116.736-67.584-181.76-83.456 104.448-47.104 173.056-151.552 173.056-267.776C807.424 146.944 675.84 15.36 514.048 15.36S220.16 147.456 220.16 309.248c0 116.224 68.608 220.672 173.056 267.776-187.904 44.544-336.896 192-383.488 381.952-2.56 10.24-1.024 21.504 5.12 30.72 5.632 9.216 14.336 15.36 25.088 17.92 3.072 0.512 6.144 1.024 9.216 1.024 18.944 0 35.328-12.8 38.912-30.72 47.616-196.608 222.72-333.824 424.96-333.824 93.184 0.512 181.248 29.184 256 82.432 18.432 12.8 43.008 8.704 56.32-9.728 12.8-18.432 8.704-43.008-9.216-56.832z m-89.6-350.208c0 117.248-95.232 212.48-212.48 212.48S301.056 427.008 301.056 309.76 396.288 97.28 513.536 97.28s212.992 95.232 212.992 212.48z" fill="#289EFC" p-id="7565"></path><path d="M976.384 706.048c-13.312-17.92-37.888-21.504-56.32-8.704l-292.352 215.552-110.592-140.288c-13.824-17.408-38.912-20.48-56.832-6.656-17.408 13.824-20.48 38.912-6.656 56.32l134.656 169.984c7.68 9.728 19.456 15.36 31.744 15.36 8.704 0 16.896-3.072 24.064-8.192l323.072-238.08c8.704-5.632 14.336-14.848 16.384-25.088 2.048-10.24-0.512-21.504-7.168-30.208z" fill="#32C9F0" p-id="7566"></path></svg>