<?xml version="1.0" standalone="no"?><!DOCTYPE svg PUBLIC "-//W3C//DTD SVG 1.1//EN" "http://www.w3.org/Graphics/SVG/1.1/DTD/svg11.dtd"><svg t="1688713164752" class="icon" viewBox="0 0 1024 1024" version="1.1" xmlns="http://www.w3.org/2000/svg" p-id="17447" xmlns:xlink="http://www.w3.org/1999/xlink" width="500" height="500"><path d="M160 512h736v160a96 96 0 0 1-96 96h-576a96 96 0 0 1-96-96v-128a32 32 0 0 1 32-32z" fill="#4078FD" opacity=".2" p-id="17448"></path><path d="M160 544v128a64 64 0 0 0 64 64h576a64 64 0 0 0 64-64v-128h-704m0-32h736v160a96 96 0 0 1-96 96h-576a96 96 0 0 1-96-96v-128a32 32 0 0 1 32-32z" fill="#4078FE" p-id="17449"></path><path d="M128 832m32 0l704 0q32 0 32 32l0 0q0 32-32 32l-704 0q-32 0-32-32l0 0q0-32 32-32Z" fill="#FE9C23" p-id="17450"></path><path d="M800 768.096h-576a95.552 95.552 0 0 1-96-94.88v-361.6a64 64 0 0 1 91.968-57.056l122.08 58.72 118.4-159.424a64.352 64.352 0 0 1 103.072 0l118.4 159.456 122.112-58.72a64 64 0 0 1 91.968 56.992v361.6a95.552 95.552 0 0 1-96 94.912z m-608-455.872v360.992a31.488 31.488 0 0 0 32 30.88h576a31.488 31.488 0 0 0 32-30.88v-361.088h-0.192l-145.952 70.176a32 32 0 0 1-39.552-9.76l-134.112-180.608h-0.448l-134.048 180.576a32 32 0 0 1-39.552 9.76l-145.92-70.176z" fill="#4078FD" p-id="17451"></path></svg>