<?xml version="1.0" standalone="no"?><!DOCTYPE svg PUBLIC "-//W3C//DTD SVG 1.1//EN" "http://www.w3.org/Graphics/SVG/1.1/DTD/svg11.dtd"><svg t="1686476506717" class="icon" viewBox="0 0 1024 1024" version="1.1" xmlns="http://www.w3.org/2000/svg" p-id="23818" xmlns:xlink="http://www.w3.org/1999/xlink" width="500" height="500"><path d="M57.344 879.616a436.224 124.928 0 1 0 872.448 0 436.224 124.928 0 1 0-872.448 0Z" fill="#EEF2FF" p-id="23819"></path><path d="M918.528 901.12l-134.144-23.552-81.92 109.568L605.184 737.28l216.064-84.992zM104.448 901.12l134.144-23.552 81.92 109.568L418.816 737.28l-216.064-84.992z" fill="#70D4FF" p-id="23820"></path><path d="M493.568 444.416m-419.84 0a419.84 419.84 0 1 0 839.68 0 419.84 419.84 0 1 0-839.68 0Z" fill="#4E8EFF" p-id="23821"></path><path d="M359.424 435.2v124.928c0 19.456-16.384 35.84-35.84 35.84s-35.84-16.384-35.84-35.84V435.2c0-19.456 16.384-35.84 35.84-35.84 20.48 0 35.84 16.384 35.84 35.84zM699.392 435.2v124.928c0 19.456-16.384 35.84-35.84 35.84s-35.84-16.384-35.84-35.84V435.2c0-19.456 16.384-35.84 35.84-35.84s35.84 16.384 35.84 35.84zM529.408 274.432v285.696c0 19.456-16.384 35.84-35.84 35.84s-35.84-16.384-35.84-35.84V274.432c0-19.456 16.384-35.84 35.84-35.84 20.48 0 35.84 16.384 35.84 35.84z" fill="#FFFFFF" p-id="23822"></path></svg>