<?xml version="1.0" standalone="no"?><!DOCTYPE svg PUBLIC "-//W3C//DTD SVG 1.1//EN" "http://www.w3.org/Graphics/SVG/1.1/DTD/svg11.dtd"><svg t="1686479440777" class="icon" viewBox="0 0 1024 1024" version="1.1" xmlns="http://www.w3.org/2000/svg" p-id="33839" xmlns:xlink="http://www.w3.org/1999/xlink" width="500" height="500"><path d="M567.1 588.8m-343.4 0a343.4 343.4 0 1 0 686.8 0 343.4 343.4 0 1 0-686.8 0Z" fill="#C5E5FF" p-id="33840"></path><path d="M435.7 708c-12.2 0-24.4-4.6-33.7-13.9L230.9 522.9c-3.7-3.7-3.7-9.8 0-13.5s9.8-3.7 13.5 0l171.2 171.2c11.1 11.1 29.3 11.1 40.4 0l323.7-323.7c3.7-3.7 9.8-3.7 13.5 0s3.7 9.8 0 13.5L469.4 694.1c-9.3 9.3-21.4 13.9-33.7 13.9z" fill="#3B94FF" p-id="33841"></path><path d="M512 960C265 960 64 759 64 512S265 64 512 64c116.1 0 226.2 44.2 310 124.6 3.8 3.6 3.9 9.7 0.3 13.5-3.7 3.8-9.7 3.9-13.5 0.3-80.2-77-185.6-119.3-296.8-119.3C275.5 83.1 83.1 275.5 83.1 512S275.5 940.9 512 940.9 940.9 748.5 940.9 512c0-63-13.3-123.6-39.6-180.3-2.2-4.8-0.1-10.4 4.6-12.7 4.8-2.2 10.4-0.1 12.7 4.6C946.1 382.9 960 446.3 960 512c0 247-201 448-448 448z" fill="#3B94FF" p-id="33842"></path></svg>