<?xml version="1.0" standalone="no"?><!DOCTYPE svg PUBLIC "-//W3C//DTD SVG 1.1//EN" "http://www.w3.org/Graphics/SVG/1.1/DTD/svg11.dtd"><svg t="1686396453548" class="icon" viewBox="0 0 1024 1024" version="1.1" xmlns="http://www.w3.org/2000/svg" p-id="10282" xmlns:xlink="http://www.w3.org/1999/xlink" width="500" height="500"><path d="M829.30176 513.76128a315.54048 315.54048 0 1 0-315.54048 315.54048 315.54048 315.54048 0 0 0 315.54048-315.54048z" fill="#64F4AF" p-id="10283"></path><path d="M819.712 204.12928A435.52768 435.52768 0 1 0 947.2 512a435.52768 435.52768 0 0 0-127.488-307.87072z m-46.81216 568.91392A369.29536 369.29536 0 1 1 880.99328 512a369.32096 369.32096 0 0 1-108.07296 261.0432z m-129.16736-439.66464L512 465.17248 380.26752 333.37856l-46.80704 46.83264L465.18784 512l-131.72736 131.79392 46.81216 46.83264L512 558.83264l131.73248 131.79392 46.80704-46.83264L558.81216 512l131.72736-131.7888z" fill="#242F44" p-id="10284"></path></svg>