<?xml version="1.0" standalone="no"?><!DOCTYPE svg PUBLIC "-//W3C//DTD SVG 1.1//EN" "http://www.w3.org/Graphics/SVG/1.1/DTD/svg11.dtd"><svg t="1687911627727" class="icon" viewBox="0 0 1024 1024" version="1.1" xmlns="http://www.w3.org/2000/svg" p-id="5363" xmlns:xlink="http://www.w3.org/1999/xlink" width="500" height="500"><path d="M523.73504 319.29344h-204.8c-16.896 0-30.72-13.824-30.72-30.72s13.824-30.72 30.72-30.72h204.8c16.896 0 30.72 13.824 30.72 30.72s-13.824 30.72-30.72 30.72zM605.65504 452.41344h-286.72c-16.896 0-30.72-13.824-30.72-30.72s13.824-30.72 30.72-30.72h286.72c16.896 0 30.72 13.824 30.72 30.72s-13.824 30.72-30.72 30.72z" fill="#FFFFFF" p-id="5364"></path><path d="M529.57184 693.15584c13.5168-14.19264 76.36992-77.04576 77.7216-77.04576 10.1376-10.1376 10.1376-25.68192 0-35.81952-10.1376-10.1376-25.68192-10.1376-35.81952 0l-33.792 33.792V466.0736A25.67168 25.67168 0 0 0 512 440.39168a25.67168 25.67168 0 0 0-25.68192 25.68192v148.00896l-33.792-33.792c-10.1376-10.1376-25.68192-10.1376-35.81952 0-10.1376 10.1376-10.1376 25.68192 0 35.81952l77.04576 77.04576c15.54432 16.22016 29.73696 6.08256 35.81952 0z m0 0" fill="#3889FF" p-id="5365"></path><path d="M647.168 174.08H376.832C264.64256 174.08 174.08 264.64256 174.08 376.832v270.336C174.08 759.35744 264.64256 849.92 376.832 849.92h270.336C759.35744 849.92 849.92 759.35744 849.92 647.168V376.832C849.92 264.64256 759.35744 174.08 647.168 174.08zM288.29696 356.5568l36.49536-65.55648c6.08256-10.81344 16.22016-14.19264 31.08864-14.19264h313.58976c16.22016 0 24.33024 4.05504 30.4128 14.19264l36.49536 66.23232c4.73088 8.78592-1.35168 18.92352-11.48928 18.92352H299.1104c-9.46176 0-15.54432-10.81344-10.81344-19.59936zM748.544 728.2688c0 9.46176-6.08256 18.92352-18.24768 18.92352h-432.5376c-22.97856 0-21.62688-18.92352-21.62688-18.92352V412.65152c0-10.1376 8.11008-17.57184 17.57184-17.57184h437.26848c10.1376 0 17.57184 8.11008 17.57184 17.57184V728.2688z m0 0" fill="#3889FF" p-id="5366"></path></svg>