<?xml version="1.0" standalone="no"?><!DOCTYPE svg PUBLIC "-//W3C//DTD SVG 1.1//EN" "http://www.w3.org/Graphics/SVG/1.1/DTD/svg11.dtd"><svg t="1687911591206" class="icon" viewBox="0 0 1024 1024" version="1.1" xmlns="http://www.w3.org/2000/svg" p-id="4620" xmlns:xlink="http://www.w3.org/1999/xlink" width="500" height="500"><path d="M523.73504 319.29344h-204.8c-16.896 0-30.72-13.824-30.72-30.72s13.824-30.72 30.72-30.72h204.8c16.896 0 30.72 13.824 30.72 30.72s-13.824 30.72-30.72 30.72zM605.65504 452.41344h-286.72c-16.896 0-30.72-13.824-30.72-30.72s13.824-30.72 30.72-30.72h286.72c16.896 0 30.72 13.824 30.72 30.72s-13.824 30.72-30.72 30.72z" fill="#FFFFFF" p-id="4621"></path><path d="M529.54112 449.26976c-6.07232-6.07232-20.23424-16.18944-35.74784 0l-76.89216 76.89216c-10.11712 10.11712-10.11712 25.63072 0 35.74784s25.63072 10.11712 35.74784 0l33.72032-33.72032v147.712a25.62048 25.62048 0 1 0 51.26144 0V528.18944l33.72032 33.72032c10.11712 10.11712 25.63072 10.11712 35.74784 0s10.11712-25.63072 0-35.74784c-1.35168 0-64.07168-62.72-77.55776-76.89216z m0 0" fill="#3889FF" p-id="4622"></path><path d="M647.168 174.08H376.832C264.64256 174.08 174.08 264.64256 174.08 376.832v270.336C174.08 759.35744 264.64256 849.92 376.832 849.92h270.336C759.35744 849.92 849.92 759.35744 849.92 647.168V376.832C849.92 264.64256 759.35744 174.08 647.168 174.08zM288.29696 356.5568l36.49536-65.55648c6.08256-10.81344 16.22016-14.19264 31.08864-14.19264h313.58976c16.22016 0 24.33024 4.05504 30.4128 14.19264l36.49536 66.23232c4.73088 8.78592-1.35168 18.92352-11.48928 18.92352H299.1104c-9.46176 0-15.54432-10.81344-10.81344-19.59936zM748.544 728.2688c0 9.46176-6.08256 18.92352-18.24768 18.92352h-432.5376c-22.97856 0-21.62688-18.92352-21.62688-18.92352V412.65152c0-10.1376 8.11008-17.57184 17.57184-17.57184h437.26848c10.1376 0 17.57184 8.11008 17.57184 17.57184V728.2688z m0 0" fill="#3889FF" p-id="4623"></path></svg>